<?xml version="1.0" encoding="utf-8" standalone="no"?>
<!DOCTYPE svg PUBLIC "-//W3C//DTD SVG 1.1//EN"
  "http://www.w3.org/Graphics/SVG/1.1/DTD/svg11.dtd">
<!-- Created with matplotlib (http://matplotlib.org/) -->
<svg height="595pt" version="1.1" viewBox="0 0 841 595" width="841pt" xmlns="http://www.w3.org/2000/svg" xmlns:xlink="http://www.w3.org/1999/xlink">
 <defs>
  <style type="text/css">
*{stroke-linecap:butt;stroke-linejoin:round;stroke-miterlimit:100000;}
  </style>
 </defs>
 <g id="figure_1">
  <g id="patch_1">
   <path d="M 0 595.275591 
L 841.889764 595.275591 
L 841.889764 0 
L 0 0 
z
" style="fill:#ffffff;"/>
  </g>
  <g id="axes_1">
   <g id="patch_2">
    <path d="M 84.188976 535.748031 
L 757.700787 535.748031 
L 757.700787 59.527559 
L 84.188976 59.527559 
z
" style="fill:#ffffff;"/>
   </g>
   <g id="line2d_1">
    <path clip-path="url(#pff96637df4)" d="M 730.245164 250.015629 
L 693.071135 264.794602 
L 655.523936 279.819224 
L 617.722174 295.061694 
L 579.810012 310.491272 
L 541.989254 326.066738 
L 504.458009 341.774805 
L 467.463238 357.647821 
L 436.73152 371.40186 
L 409.250599 385.101886 
L 403.476904 389.016866 
L 402.801245 389.786157 
L 402.589486 390.485924 
L 402.814108 390.82373 
L 403.116795 390.983715 
L 403.476297 391.084921 
L 403.922909 391.151948 
L 404.490163 391.186749 
L 405.230309 391.182666 
L 406.227425 391.123326 
L 407.62065 390.976731 
L 409.64893 390.68226 
L 412.739396 390.123384 
L 417.683512 389.07069 
L 425.346831 387.226323 
L 435.271202 384.625597 
L 447.573431 381.211575 
L 461.703849 377.13227 
L 476.953078 372.607735 
L 492.767313 367.823866 
L 508.823971 362.897787 
L 524.95356 357.89664 
L 541.066814 352.85927 
L 557.114328 347.809301 
L 573.066942 342.761954 
L 588.906335 337.727555 
L 604.620342 332.713409 
L 620.200436 327.724885 
L 635.640277 322.766076 
L 650.934916 317.840192 
L 666.080491 312.949766 
L 681.07414 308.096757 
L 695.913813 303.282664 
L 710.597856 298.508708 
L 725.124534 293.776016 
L 739.491882 289.0857 
L 753.69807 284.438751 
" style="fill:none;stroke:#800000;stroke-linecap:square;"/>
   </g>
   <g id="line2d_2">
    <path clip-path="url(#pff96637df4)" d="M 730.245164 145.186723 
L 693.071135 165.497505 
L 655.523936 186.155071 
L 617.722174 207.122798 
L 579.810012 228.359821 
L 541.989254 249.810029 
L 504.458009 271.453458 
L 467.463238 293.326773 
L 436.73152 312.262329 
L 409.250599 331.040999 
L 403.476904 336.347742 
L 402.801245 337.378201 
L 402.589486 338.30524 
L 402.814108 338.744608 
L 403.116795 338.947878 
L 403.476297 339.072379 
L 403.922909 339.149791 
L 404.490163 339.181898 
L 405.230309 339.15872 
L 406.227425 339.056755 
L 407.62065 338.830695 
L 409.64893 338.395343 
L 412.739396 337.587842 
L 417.683512 336.089123 
L 425.346831 333.489906 
L 435.271202 329.849909 
L 447.573431 325.094104 
L 461.703849 319.430771 
L 476.953078 313.16483 
L 492.767313 306.551872 
L 508.823971 299.751781 
L 524.95356 292.855503 
L 541.066814 285.915219 
L 557.114328 278.962399 
L 573.066942 272.017153 
L 588.906335 265.09302 
L 604.620342 258.199517 
L 620.200436 251.343594 
L 635.640277 244.530524 
L 650.934916 237.764435 
L 666.080491 231.048569 
L 681.07414 224.385417 
L 695.913813 217.776867 
L 710.597856 211.224447 
L 725.124534 204.729571 
L 739.491882 198.293646 
L 753.69807 191.917927 
" style="fill:none;stroke:#800000;stroke-linecap:square;"/>
   </g>
   <g id="line2d_3">
    <path clip-path="url(#pff96637df4)" d="M 730.245164 98.004382 
L 693.071135 119.980289 
L 655.523936 142.178545 
L 617.722174 164.535349 
L 579.810012 186.97011 
L 541.989254 209.363883 
L 504.458009 231.589861 
L 467.463238 253.466364 
L 436.73152 271.527314 
L 409.250599 287.248854 
L 403.476904 290.189965 
L 402.801245 290.423836 
L 402.589486 290.334703 
L 402.814108 290.046917 
L 403.116795 289.763698 
L 403.476297 289.458819 
L 403.922909 289.100923 
L 404.490163 288.664271 
L 405.230309 288.112204 
L 406.227425 287.387766 
L 407.62065 286.398499 
L 409.64893 284.987775 
L 412.739396 282.87885 
L 417.683512 279.564625 
L 425.346831 274.510253 
L 435.271202 268.051079 
L 447.573431 260.126748 
L 461.703849 251.098151 
L 476.953078 241.415451 
L 492.767313 231.422353 
L 508.823971 221.314036 
L 524.95356 211.189584 
L 541.066814 201.098759 
L 557.114328 191.067409 
L 573.066942 181.109591 
L 588.906335 171.23329 
L 604.620342 161.443188 
L 620.200436 151.742131 
L 635.640277 142.131949 
L 650.934916 132.613891 
L 666.080491 123.188767 
L 681.07414 113.856962 
L 695.913813 104.618525 
L 710.597856 95.473395 
L 725.124534 86.421685 
L 739.491882 77.463752 
L 753.69807 68.599959 
" style="fill:none;stroke:#800000;stroke-linecap:square;"/>
   </g>
   <g id="line2d_4">
    <path clip-path="url(#pff96637df4)" d="M 419.919914 388.854329 
L 419.920598 388.873413 
L 419.923609 388.911132 
L 419.936306 388.984669 
L 419.989005 389.123366 
L 420.221008 389.374199 
L 420.692507 389.589974 
L 421.323172 389.718926 
L 424.241988 389.706222 
L 427.710067 389.281366 
L 446.643261 385.217483 
L 463.202567 380.908954 
L 479.613613 376.373094 
L 499.390444 370.711831 
L 519.615496 364.785311 
L 539.878396 358.75601 
L 560.006513 352.702816 
L 579.932622 346.663855 
L 599.62523 340.660603 
L 619.066539 334.706676 
L 638.244502 328.81154 
L 657.149291 322.982387 
L 675.773755 317.2245 
L 694.11352 311.541539 
L 712.163741 305.936764 
L 729.918951 300.413223 
L 747.377003 294.972626 
" style="fill:none;stroke:#008000;stroke-linecap:square;"/>
   </g>
   <g id="line2d_5">
    <path clip-path="url(#pff96637df4)" d="M 419.919914 388.824904 
L 419.920598 388.80532 
L 419.923609 388.765404 
L 419.936306 388.682602 
L 419.989005 388.505452 
L 420.221008 388.085335 
L 420.692507 387.525551 
L 421.323172 386.936516 
L 424.241988 384.820694 
L 427.710067 382.718189 
L 446.643261 373.015808 
L 463.202567 365.324731 
L 479.613613 358.002836 
L 499.390444 349.416526 
L 519.615496 340.816623 
L 539.878396 332.333642 
L 560.006513 324.009122 
L 579.932622 315.849487 
L 599.62523 307.852393 
L 619.066539 300.013815 
L 638.244502 292.330037 
L 657.149291 284.798263 
L 675.773755 277.415925 
L 694.11352 270.180315 
L 712.163741 263.089641 
L 729.918951 256.142919 
L 747.377003 249.338304 
" style="fill:none;stroke:#008000;stroke-linecap:square;"/>
   </g>
   <g id="line2d_6">
    <path clip-path="url(#pff96637df4)" d="M 419.919914 335.76701 
L 419.920598 335.792437 
L 419.923609 335.842662 
L 419.936306 335.940463 
L 419.989005 336.124429 
L 420.221008 336.454799 
L 420.692507 336.734398 
L 421.323172 336.895647 
L 424.241988 336.830311 
L 427.710067 336.207716 
L 446.643261 330.497439 
L 463.202567 324.51039 
L 479.613613 318.23033 
L 499.390444 310.409932 
L 519.615496 302.236528 
L 539.878396 293.931019 
L 560.006513 285.599759 
L 579.932622 277.293567 
L 599.62523 269.040788 
L 619.066539 260.85926 
L 638.244502 252.761337 
L 657.149291 244.756389 
L 675.773755 236.851257 
L 694.11352 229.050622 
L 712.163741 221.358673 
L 729.918951 213.779367 
L 747.377003 206.314877 
" style="fill:none;stroke:#008000;stroke-linecap:square;"/>
   </g>
   <g id="line2d_7">
    <path clip-path="url(#pff96637df4)" d="M 419.919914 335.727789 
L 419.920598 335.701673 
L 419.923609 335.648415 
L 419.936306 335.537825 
L 419.989005 335.300778 
L 420.221008 334.736734 
L 420.692507 333.982282 
L 421.323172 333.185966 
L 424.241988 330.313386 
L 427.710067 327.447891 
L 446.643261 314.165066 
L 463.202567 303.604709 
L 479.613613 293.540211 
L 499.390444 281.730929 
L 519.615496 269.899848 
L 539.878396 258.22905 
L 560.006513 246.777081 
L 579.932622 235.553497 
L 599.62523 224.55539 
L 619.066539 213.777306 
L 638.244502 203.214079 
L 657.149291 192.861748 
L 675.773755 182.716649 
L 694.11352 172.774919 
L 712.163741 163.033941 
L 729.918951 153.492185 
L 747.377003 144.14694 
" style="fill:none;stroke:#008000;stroke-linecap:square;"/>
   </g>
   <g id="line2d_8">
    <path clip-path="url(#pff96637df4)" d="M 419.919914 278.587811 
L 419.920598 278.594159 
L 419.923609 278.605896 
L 419.936306 278.625452 
L 419.989005 278.648319 
L 420.221008 278.623017 
L 420.692507 278.468615 
L 421.323172 278.206119 
L 424.241988 276.777267 
L 427.710067 274.935413 
L 446.643261 264.267622 
L 463.202567 254.677987 
L 479.613613 245.088652 
L 499.390444 233.475572 
L 519.615496 221.564225 
L 539.878396 209.610897 
L 560.006513 197.72589 
L 579.932622 185.95362 
L 599.62523 174.315226 
L 619.066539 162.822468 
L 638.244502 151.482941 
L 657.149291 140.302465 
L 675.773755 129.285006 
L 694.11352 118.432733 
L 712.163741 107.748013 
L 729.918951 97.233553 
L 747.377003 86.890095 
" style="fill:none;stroke:#008000;stroke-linecap:square;"/>
   </g>
   <g id="line2d_9">
    <path clip-path="url(#pff96637df4)" d="M 419.919914 278.577509 
L 419.920598 278.57032 
L 419.923609 278.554878 
L 419.936306 278.519703 
L 419.989005 278.432007 
L 420.221008 278.171905 
L 420.692507 277.746307 
L 421.323172 277.233054 
L 424.241988 275.072309 
L 427.710067 272.650515 
L 446.643261 260.06808 
L 463.202567 249.355909 
L 479.613613 238.852127 
L 499.390444 226.281931 
L 519.615496 213.491083 
L 539.878396 200.719686 
L 560.006513 188.062271 
L 579.932622 175.55067 
L 599.62523 163.196821 
L 619.066539 151.005768 
L 638.244502 138.980147 
L 657.149291 127.122141 
L 675.773755 115.433003 
L 694.11352 103.912762 
L 712.163741 92.562086 
L 729.918951 81.382333 
L 747.377003 70.373153 
" style="fill:none;stroke:#008000;stroke-linecap:square;"/>
   </g>
   <g id="line2d_10">
    <path clip-path="url(#pff96637df4)" d="M 229.019083 421.437063 
L 229.021621 421.5402 
L 229.039957 421.739151 
L 230.016813 423.106116 
L 233.105535 423.693422 
L 239.36639 422.928718 
L 245.831811 421.362523 
L 253.089681 419.199952 
L 264.408617 415.377346 
L 279.998538 409.625758 
L 302.457495 400.826267 
L 334.687533 387.679753 
L 373.07231 371.655963 
L 416.346165 353.386583 
L 462.443647 333.833325 
L 510.027343 313.623242 
L 558.35607 293.103179 
L 606.998958 272.470541 
L 655.680601 251.84677 
L 704.199712 231.316518 
L 752.405532 210.940225 
" style="fill:none;stroke:#00ff00;stroke-linecap:square;"/>
   </g>
   <g id="line2d_11">
    <path clip-path="url(#pff96637df4)" d="M 229.019083 421.421652 
L 229.021621 421.315761 
L 229.039957 421.096921 
L 230.016813 418.670557 
L 233.105535 414.736794 
L 239.36639 408.732509 
L 245.831811 403.327077 
L 253.089681 397.684059 
L 264.408617 389.373086 
L 279.998538 378.484046 
L 302.457495 363.440378 
L 334.687533 342.604551 
L 373.07231 318.466694 
L 416.346165 291.800696 
L 462.443647 263.819014 
L 510.027343 235.259239 
L 558.35607 206.500544 
L 606.998958 177.746491 
L 655.680601 149.118081 
L 704.199712 120.700228 
L 752.405532 92.55407 
" style="fill:none;stroke:#00ff00;stroke-linecap:square;"/>
   </g>
   <g id="line2d_12">
    <path clip-path="url(#pff96637df4)" d="M 89.73743 519.909026 
L 89.777961 520.238781 
L 89.834132 520.619108 
L 89.904779 521.00979 
L 89.98798 521.383115 
L 90.08642 521.739622 
L 90.241032 522.170836 
L 90.441081 522.571468 
L 90.686494 522.903217 
L 91.286325 523.278898 
L 91.710426 523.322506 
L 92.640915 523.070491 
L 93.79535 522.396795 
L 95.174661 521.334515 
L 99.203844 517.651995 
L 103.780744 513.240555 
L 113.906584 503.820327 
L 137.341357 484.424811 
L 191.950866 445.605246 
L 252.594715 406.54464 
L 322.584807 363.790037 
L 401.322641 317.337353 
L 486.919624 268.063694 
L 577.874428 216.643312 
L 672.947399 163.626879 
" style="fill:none;stroke:#ff0000;stroke-linecap:square;"/>
   </g>
   <g id="line2d_13">
    <path clip-path="url(#pff96637df4)" d="M 293.555269 405.062404 
L 293.649254 405.447165 
L 294.233621 406.126664 
L 295.727812 406.605953 
L 298.305569 406.634977 
L 310.988789 403.961542 
L 319.032133 401.532778 
L 335.553475 395.915919 
L 353.761468 389.239602 
L 377.204038 380.278235 
L 404.767591 369.472591 
L 435.239435 357.356866 
L 467.381347 344.483342 
L 500.417839 331.207657 
L 533.923118 317.729834 
L 567.649611 304.166802 
L 601.43833 290.592477 
L 635.176372 277.057645 
L 668.767074 263.603687 
L 702.134702 250.261745 
L 735.235079 237.049174 
" style="fill:none;stroke:#0000ff;stroke-linecap:square;"/>
   </g>
   <g id="line2d_14">
    <path clip-path="url(#pff96637df4)" d="M 293.555269 404.683276 
L 293.649254 404.200903 
L 294.233621 402.914595 
L 295.727812 400.884549 
L 298.305569 398.182909 
L 310.988789 387.754958 
L 319.032133 381.914972 
L 335.553475 370.637138 
L 353.761468 358.82233 
L 377.204038 344.154162 
L 404.767591 327.402675 
L 435.239435 309.302576 
L 467.381347 290.551282 
L 500.417839 271.553221 
L 533.923118 252.510241 
L 567.649611 233.528177 
L 601.43833 214.668789 
L 635.176372 195.972901 
L 668.767074 177.475991 
L 702.134702 159.20478 
L 735.235079 141.171 
" style="fill:none;stroke:#0000ff;stroke-linecap:square;"/>
   </g>
   <g id="line2d_15">
    <path clip-path="url(#pff96637df4)" d="M 293.555269 370.067674 
L 293.649254 370.209052 
L 294.233621 370.305198 
L 295.727812 369.973406 
L 298.305569 369.030491 
L 310.988789 363.046968 
L 319.032133 358.889405 
L 335.553475 350.029094 
L 353.761468 340.018274 
L 377.204038 326.956719 
L 404.767591 311.494027 
L 435.239435 294.36213 
L 467.381347 276.302115 
L 500.417839 257.778461 
L 533.923118 239.044775 
L 567.649611 220.245528 
L 601.43833 201.470318 
L 635.176372 182.780059 
L 668.767074 164.224966 
L 702.134702 145.842789 
L 735.235079 127.653555 
" style="fill:none;stroke:#0000ff;stroke-linecap:square;"/>
   </g>
   <g id="line2d_16">
    <path clip-path="url(#pff96637df4)" d="M 293.555269 369.894574 
L 293.649254 369.640192 
L 294.233621 368.84146 
L 295.727812 367.377076 
L 298.305569 365.222252 
L 310.988789 355.983524 
L 319.032133 350.505216 
L 335.553475 339.618488 
L 353.761468 327.939043 
L 377.204038 313.186998 
L 404.767591 296.103008 
L 435.239435 277.4378 
L 467.381347 257.928902 
L 500.417839 238.019786 
L 533.923118 217.941675 
L 567.649611 197.821417 
L 601.43833 177.736058 
L 635.176372 157.737938 
L 668.767074 137.87183 
L 702.134702 118.171655 
L 735.235079 98.654003 
" style="fill:none;stroke:#0000ff;stroke-linecap:square;"/>
   </g>
   <g id="line2d_17">
    <path clip-path="url(#pff96637df4)" d="M 313.959678 403.38144 
L 313.987847 403.473433 
L 314.247309 403.636966 
L 314.799482 403.685183 
L 317.39784 403.267546 
L 324.159904 401.322477 
L 345.146802 393.866718 
L 368.601643 384.866734 
L 386.03775 378.010991 
L 403.560403 371.049212 
L 427.920924 361.303281 
L 452.793237 351.309583 
L 478.031012 341.149151 
L 503.509586 330.885994 
L 529.147791 320.561547 
L 554.883822 310.206217 
L 580.66758 299.843585 
L 606.456947 289.492611 
L 632.216226 279.168718 
L 657.915879 268.884207 
L 683.531669 258.648808 
L 709.04191 248.470927 
L 734.424041 238.359102 
" style="fill:none;stroke:#00ffff;stroke-linecap:square;"/>
   </g>
   <g id="line2d_18">
    <path clip-path="url(#pff96637df4)" d="M 313.959678 403.334462 
L 313.987847 403.218799 
L 314.247309 402.837259 
L 314.799482 402.32527 
L 317.39784 400.563588 
L 324.159904 396.856714 
L 345.146802 386.872394 
L 368.601643 376.440608 
L 386.03775 368.853857 
L 403.560403 361.297977 
L 427.920924 350.857972 
L 452.793237 340.245533 
L 478.031012 329.509342 
L 503.509586 318.695601 
L 529.147791 307.835041 
L 554.883822 296.951558 
L 580.66758 286.064714 
L 606.456947 275.190975 
L 632.216226 264.344213 
L 657.915879 253.535759 
L 683.531669 242.774739 
L 709.04191 232.069227 
L 734.424041 221.427679 
" style="fill:none;stroke:#00ffff;stroke-linecap:square;"/>
   </g>
   <g id="line2d_19">
    <path clip-path="url(#pff96637df4)" d="M 313.959678 385.897556 
L 313.987847 386.088019 
L 314.247309 386.496781 
L 314.799482 386.779078 
L 317.39784 386.861044 
L 324.159904 385.461784 
L 345.146802 378.559426 
L 368.601643 369.64946 
L 386.03775 362.717528 
L 403.560403 355.607871 
L 427.920924 345.576372 
L 452.793237 335.223225 
L 478.031012 324.64634 
L 503.509586 313.921148 
L 529.147791 303.09682 
L 554.883822 292.209301 
L 580.66758 281.286295 
L 606.456947 270.349931 
L 632.216226 259.418113 
L 657.915879 248.505097 
L 683.531669 237.622156 
L 709.04191 226.778965 
L 734.424041 215.985207 
" style="fill:none;stroke:#00ffff;stroke-linecap:square;"/>
   </g>
   <g id="line2d_20">
    <path clip-path="url(#pff96637df4)" d="M 313.959678 385.805042 
L 313.987847 385.586465 
L 314.247309 384.918728 
L 314.799482 384.085223 
L 317.39784 381.408101 
L 324.159904 376.044313 
L 345.146802 361.898064 
L 368.601643 347.246197 
L 386.03775 336.673149 
L 403.560403 326.216452 
L 427.920924 311.882952 
L 452.793237 297.43501 
L 478.031012 282.927146 
L 503.509586 268.409245 
L 529.147791 253.910885 
L 554.883822 239.453777 
L 580.66758 225.055244 
L 606.456947 210.72976 
L 632.216226 196.489461 
L 657.915879 182.344059 
L 683.531669 168.301146 
L 709.04191 154.367573 
L 734.424041 140.551203 
" style="fill:none;stroke:#00ffff;stroke-linecap:square;"/>
   </g>
   <g id="line2d_21">
    <path clip-path="url(#pff96637df4)" d="M 313.959678 361.889345 
L 313.987847 361.965509 
L 314.247309 362.051771 
L 314.799482 361.966256 
L 317.39784 360.990726 
L 324.159904 357.708367 
L 345.146802 346.380482 
L 368.601643 333.265672 
L 386.03775 323.435929 
L 403.560403 313.538187 
L 427.920924 299.779166 
L 452.793237 285.753266 
L 478.031012 271.555243 
L 503.509586 257.261155 
L 529.147791 242.918901 
L 554.883822 228.563381 
L 580.66758 214.221671 
L 606.456947 199.915641 
L 632.216226 185.663151 
L 657.915879 171.478415 
L 683.531669 157.372622 
L 709.04191 143.355536 
L 734.424041 129.437425 
" style="fill:none;stroke:#00ffff;stroke-linecap:square;"/>
   </g>
   <g id="line2d_22">
    <path clip-path="url(#pff96637df4)" d="M 313.959678 361.847056 
L 313.987847 361.736263 
L 314.247309 361.331059 
L 314.799482 360.738007 
L 317.39784 358.523764 
L 324.159904 353.529992 
L 345.146802 339.37727 
L 368.601643 324.318041 
L 386.03775 313.370525 
L 403.560403 302.508559 
L 427.920924 287.580066 
L 452.793237 272.495468 
L 478.031012 257.315865 
L 503.509586 242.095824 
L 529.147791 226.868048 
L 554.883822 211.656705 
L 580.66758 196.481193 
L 606.456947 181.3578 
L 632.216226 166.300269 
L 657.915879 151.319718 
L 683.531669 136.424989 
L 709.04191 121.62413 
L 734.424041 106.92628 
" style="fill:none;stroke:#00ffff;stroke-linecap:square;"/>
   </g>
   <g id="line2d_23">
    <path clip-path="url(#pff96637df4)" d="M 313.959678 354.30393 
L 313.987847 354.329383 
L 314.247309 354.279096 
L 314.799482 354.047048 
L 317.39784 352.684921 
L 324.159904 348.77833 
L 345.146802 336.094885 
L 368.601643 321.762796 
L 386.03775 311.129131 
L 403.560403 300.482693 
L 427.920924 285.754993 
L 452.793237 270.802682 
L 478.031012 255.71013 
L 503.509586 240.545545 
L 529.147791 225.350115 
L 554.883822 210.153469 
L 580.66758 194.978635 
L 606.456947 179.844406 
L 632.216226 164.766308 
L 657.915879 149.756755 
L 683.531669 134.825515 
L 709.04191 119.981266 
L 734.424041 105.233534 
" style="fill:none;stroke:#00ffff;stroke-linecap:square;"/>
   </g>
   <g id="line2d_24">
    <path clip-path="url(#pff96637df4)" d="M 313.959678 354.284375 
L 313.987847 354.223396 
L 314.247309 353.946461 
L 314.799482 353.48222 
L 317.39784 351.569406 
L 324.159904 346.966762 
L 345.146802 333.385896 
L 368.601643 318.635171 
L 386.03775 307.819002 
L 403.560403 297.037735 
L 427.920924 282.162162 
L 452.793237 267.080307 
L 478.031012 251.86401 
L 503.509586 236.575097 
L 529.147791 221.25133 
L 554.883822 205.92049 
L 580.66758 190.604614 
L 606.456947 175.321954 
L 632.216226 160.08772 
L 657.915879 144.914103 
L 683.531669 129.810697 
L 709.04191 114.78606 
L 734.424041 99.8497 
" style="fill:none;stroke:#00ffff;stroke-linecap:square;"/>
   </g>
   <g id="line2d_25">
    <path clip-path="url(#pff96637df4)" d="M 318.645071 403.09175 
L 318.648418 403.102765 
L 318.667909 403.120087 
L 318.820185 403.135514 
L 319.283397 403.066727 
L 319.904461 402.922339 
L 321.336204 402.521866 
L 323.313337 401.906084 
L 327.419256 400.529092 
L 331.99435 398.91666 
L 341.126781 395.570767 
L 353.232833 390.988816 
L 368.685985 385.003817 
L 386.809402 377.872812 
L 406.855754 369.904267 
L 428.12714 361.395772 
L 450.142661 352.558063 
L 472.616172 343.520059 
L 495.381126 334.358703 
L 518.334661 325.122231 
L 541.406999 315.843339 
L 564.546574 306.545824 
L 587.713326 297.247755 
L 610.874974 287.963298 
L 634.003613 278.704314 
L 657.073298 269.481481 
L 680.060397 260.304254 
L 702.945781 251.180068 
L 725.715125 242.114275 
L 748.35501 233.111744 
" style="fill:none;stroke:#ff00ff;stroke-linecap:square;"/>
   </g>
   <g id="line2d_26">
    <path clip-path="url(#pff96637df4)" d="M 318.645071 403.085054 
L 318.648418 403.071671 
L 318.667909 403.040561 
L 318.820185 402.917434 
L 319.283397 402.658775 
L 319.904461 402.364436 
L 321.336204 401.754052 
L 323.313337 400.972743 
L 327.419256 399.432873 
L 331.99435 397.758173 
L 341.126781 394.415495 
L 353.232833 389.909488 
L 368.685985 384.033364 
L 386.809402 377.01268 
L 406.855754 369.140752 
L 428.12714 360.711222 
L 450.142661 351.936258 
L 472.616172 342.947714 
L 495.381126 333.825353 
L 518.334661 324.619705 
L 541.406999 315.365223 
L 564.546574 306.08703 
L 587.713326 296.804194 
L 610.874974 287.531633 
L 634.003613 278.281771 
L 657.073298 269.06571 
L 680.060397 259.893234 
L 702.945781 250.772038 
L 725.715125 241.707701 
L 748.35501 232.705293 
" style="fill:none;stroke:#ff00ff;stroke-linecap:square;"/>
   </g>
   <g id="line2d_27">
    <path clip-path="url(#pff96637df4)" d="M 318.645071 399.968725 
L 318.648418 399.998517 
L 318.667909 400.052891 
L 318.820185 400.17351 
L 319.283397 400.250373 
L 319.904461 400.226267 
L 321.336204 400.012176 
L 323.313337 399.574938 
L 327.419256 398.453971 
L 331.99435 397.042056 
L 341.126781 393.973316 
L 353.232833 389.635565 
L 368.685985 383.861591 
L 386.809402 376.900537 
L 406.855754 369.063721 
L 428.12714 360.655486 
L 450.142661 351.893976 
L 472.616172 342.914306 
L 495.381126 333.798034 
L 518.334661 324.596704 
L 541.406999 315.345367 
L 564.546574 306.069516 
L 587.713326 296.788454 
L 610.874974 287.517256 
L 634.003613 278.268462 
L 657.073298 269.053255 
L 680.060397 259.881477 
L 702.945781 250.760864 
L 725.715125 241.697014 
L 748.35501 232.695005 
" style="fill:none;stroke:#ff00ff;stroke-linecap:square;"/>
   </g>
   <g id="line2d_28">
    <path clip-path="url(#pff96637df4)" d="M 318.645071 399.951687 
L 318.648418 399.919381 
L 318.667909 399.850361 
L 318.820185 399.615289 
L 319.283397 399.18985 
L 319.904461 398.745606 
L 321.336204 397.875691 
L 323.313337 396.806292 
L 327.419256 394.765461 
L 331.99435 392.610437 
L 341.126781 388.460077 
L 353.232833 383.097802 
L 368.685985 376.362412 
L 386.809402 368.544145 
L 406.855754 359.952035 
L 428.12714 350.872653 
L 450.142661 341.502566 
L 472.616172 331.958367 
L 495.381126 322.307816 
L 518.334661 312.592757 
L 541.406999 302.841565 
L 564.546574 293.075146 
L 587.713326 283.309635 
L 610.874974 273.557913 
L 634.003613 263.831016 
L 657.073298 254.139153 
L 680.060397 244.491547 
L 702.945781 234.895528 
L 725.715125 225.356404 
L 748.35501 215.879097 
" style="fill:none;stroke:#ff00ff;stroke-linecap:square;"/>
   </g>
   <g id="line2d_29">
    <path clip-path="url(#pff96637df4)" d="M 318.645071 386.857415 
L 318.648418 386.916426 
L 318.667909 387.026492 
L 318.820185 387.290398 
L 319.283397 387.527594 
L 319.904461 387.601445 
L 321.336204 387.477885 
L 323.313337 387.061047 
L 327.419256 385.869248 
L 331.99435 384.332988 
L 341.126781 381.01218 
L 353.232833 376.37903 
L 368.685985 370.273734 
L 386.809402 362.95459 
L 406.855754 354.734337 
L 428.12714 345.919233 
L 450.142661 336.729249 
L 472.616172 327.300925 
L 495.381126 317.716981 
L 518.334661 308.030015 
L 541.406999 298.276086 
L 564.546574 288.481651 
L 587.713326 278.66691 
L 610.874974 268.847758 
L 634.003613 259.037494 
L 657.073298 249.248049 
L 680.060397 239.489979 
L 702.945781 229.771643 
L 725.715125 220.099144 
L 748.35501 210.478042 
" style="fill:none;stroke:#ff00ff;stroke-linecap:square;"/>
   </g>
   <g id="line2d_30">
    <path clip-path="url(#pff96637df4)" d="M 318.645071 386.823999 
L 318.648418 386.76122 
L 318.667909 386.629211 
L 318.820185 386.193939 
L 319.283397 385.436115 
L 319.904461 384.665779 
L 321.336204 383.190569 
L 323.313337 381.414989 
L 327.419256 378.105928 
L 331.99435 374.696217 
L 341.126781 368.299659 
L 353.232833 360.254289 
L 368.685985 350.375841 
L 386.809402 339.130373 
L 406.855754 326.975115 
L 428.12714 314.30899 
L 450.142661 301.389563 
L 472.616172 288.358527 
L 495.381126 275.290755 
L 518.334661 262.227835 
L 541.406999 249.19542 
L 564.546574 236.211179 
L 587.713326 223.288119 
L 610.874974 210.436309 
L 634.003613 197.664496 
L 657.073298 184.981219 
L 680.060397 172.394437 
L 702.945781 159.910207 
L 725.715125 147.53245 
L 748.35501 135.265005 
" style="fill:none;stroke:#ff00ff;stroke-linecap:square;"/>
   </g>
   <g id="line2d_31">
    <path clip-path="url(#pff96637df4)" d="M 318.645071 380.485703 
L 318.648418 380.508983 
L 318.667909 380.546886 
L 318.820185 380.593014 
L 319.283397 380.492216 
L 319.904461 380.248153 
L 321.336204 379.543429 
L 323.313337 378.43905 
L 327.419256 375.956248 
L 331.99435 373.074787 
L 341.126781 367.244463 
L 353.232833 359.56161 
L 368.685985 349.913924 
L 386.809402 338.810049 
L 406.855754 326.74229 
L 428.12714 314.131625 
L 450.142661 301.248638 
L 472.616172 288.242466 
L 495.381126 275.192252 
L 518.334661 262.142094 
L 541.406999 249.119175 
L 564.546574 236.142132 
L 587.713326 223.224607 
L 610.874974 210.377102 
L 634.003613 197.608666 
L 657.073298 184.928048 
L 680.060397 172.343355 
L 702.945781 159.860747 
L 725.715125 147.484213 
L 748.35501 135.217643 
" style="fill:none;stroke:#ff00ff;stroke-linecap:square;"/>
   </g>
   <g id="line2d_32">
    <path clip-path="url(#pff96637df4)" d="M 318.645071 380.471737 
L 318.648418 380.444122 
L 318.667909 380.380975 
L 318.820185 380.137546 
L 319.283397 379.637355 
L 319.904461 379.073898 
L 321.336204 377.911121 
L 323.313337 376.428105 
L 327.419256 373.531471 
L 331.99435 370.441942 
L 341.126781 364.489031 
L 353.232833 356.841549 
L 368.685985 347.317317 
L 386.809402 336.366925 
L 406.855754 324.447398 
L 428.12714 311.964682 
L 450.142661 299.186247 
L 472.616172 286.263043 
L 495.381126 273.277331 
L 518.334661 260.276265 
L 541.406999 247.28963 
L 564.546574 234.338172 
L 587.713326 221.43721 
L 610.874974 208.598566 
L 634.003613 195.832326 
L 657.073298 183.148062 
L 680.060397 170.554552 
L 702.945781 158.058521 
L 725.715125 145.664444 
L 748.35501 133.37663 
" style="fill:none;stroke:#ff00ff;stroke-linecap:square;"/>
   </g>
   <g id="line2d_33">
    <path clip-path="url(#pff96637df4)" d="M 318.645071 360.602009 
L 318.648418 360.611965 
L 318.667909 360.62465 
L 318.820185 360.607825 
L 319.283397 360.445094 
L 319.904461 360.177069 
L 321.336204 359.495757 
L 323.313337 358.497743 
L 327.419256 356.340362 
L 331.99435 353.873858 
L 341.126781 348.85877 
L 353.232833 342.11796 
L 368.685985 333.441869 
L 386.809402 323.223098 
L 406.855754 311.904304 
L 428.12714 299.899154 
L 450.142661 287.4931 
L 472.616172 274.856053 
L 495.381126 262.086457 
L 518.334661 249.244294 
L 541.406999 236.369313 
L 564.546574 223.490016 
L 587.713326 210.627821 
L 610.874974 197.799397 
L 634.003613 185.018725 
L 657.073298 172.298541 
L 680.060397 159.650217 
L 702.945781 147.082613 
L 725.715125 134.601977 
L 748.35501 122.214119 
" style="fill:none;stroke:#ff00ff;stroke-linecap:square;"/>
   </g>
   <g id="line2d_34">
    <path clip-path="url(#pff96637df4)" d="M 318.645071 360.595532 
L 318.648418 360.581885 
L 318.667909 360.547708 
L 318.820185 360.396658 
L 319.283397 360.049104 
L 319.904461 359.633756 
L 321.336204 358.742479 
L 323.313337 357.573003 
L 327.419256 355.233287 
L 331.99435 352.68123 
L 341.126781 347.63008 
L 353.232833 340.930076 
L 368.685985 332.337337 
L 386.809402 322.214428 
L 406.855754 310.986093 
L 428.12714 299.058749 
L 450.142661 286.716842 
L 472.616172 274.131762 
L 495.381126 261.403981 
L 518.334661 248.59536 
L 541.406999 235.747198 
L 564.546574 222.889224 
L 587.713326 210.04381 
L 610.874974 197.228376 
L 634.003613 184.457499 
L 657.073298 171.744401 
L 680.060397 159.100854 
L 702.945781 146.536051 
L 725.715125 134.056501 
L 748.35501 121.668207 
" style="fill:none;stroke:#ff00ff;stroke-linecap:square;"/>
   </g>
   <g id="line2d_35">
    <path clip-path="url(#pff96637df4)" d="M 318.645071 357.738453 
L 318.648418 357.763269 
L 318.667909 357.805131 
L 318.820185 357.870159 
L 319.283397 357.818835 
L 319.904461 357.641658 
L 321.336204 357.100144 
L 323.313337 356.236066 
L 327.419256 354.272761 
L 331.99435 351.961377 
L 341.126781 347.167892 
L 353.232833 340.632267 
L 368.685985 332.143463 
L 386.809402 322.08367 
L 406.855754 310.893825 
L 428.12714 298.990517 
L 450.142661 286.664167 
L 472.616172 274.089547 
L 495.381126 261.369053 
L 518.334661 248.565668 
L 541.406999 235.721366 
L 564.546574 222.866302 
L 587.713326 210.023127 
L 610.874974 197.209441 
L 634.003613 184.439942 
L 657.073298 171.72793 
L 680.060397 159.085229 
L 702.945781 146.521067 
L 725.715125 134.04199 
L 748.35501 121.654034 
" style="fill:none;stroke:#ff00ff;stroke-linecap:square;"/>
   </g>
   <g id="line2d_36">
    <path clip-path="url(#pff96637df4)" d="M 318.645071 357.723767 
L 318.648418 357.695058 
L 318.667909 357.630538 
L 318.820185 357.388469 
L 319.283397 356.901003 
L 319.904461 356.355211 
L 321.336204 355.227604 
L 323.313337 353.781334 
L 327.419256 350.929313 
L 331.99435 347.854203 
L 341.126781 341.858743 
L 353.232833 334.067715 
L 368.685985 324.282977 
L 386.809402 312.967859 
L 406.855754 300.601745 
L 428.12714 287.612287 
L 450.142661 274.282426 
L 472.616172 260.772763 
L 495.381126 247.171507 
L 518.334661 233.529704 
L 541.406999 219.879926 
L 564.546574 206.245097 
L 587.713326 192.642332 
L 610.874974 179.084992 
L 634.003613 165.584541 
L 657.073298 152.151834 
L 680.060397 138.796812 
L 702.945781 125.527173 
L 725.715125 112.34819 
L 748.35501 99.264971 
" style="fill:none;stroke:#ff00ff;stroke-linecap:square;"/>
   </g>
   <g id="line2d_37">
    <path clip-path="url(#pff96637df4)" d="M 318.645071 352.16812 
L 318.648418 352.178773 
L 318.667909 352.191618 
L 318.820185 352.166327 
L 319.283397 351.969667 
L 319.904461 351.653802 
L 321.336204 350.86198 
L 323.313337 349.714581 
L 327.419256 347.260437 
L 331.99435 344.482293 
L 341.126781 338.89286 
L 353.232833 331.463461 
L 368.685985 321.993318 
L 386.809402 310.929154 
L 406.855754 298.752512 
L 428.12714 285.901163 
L 450.142661 272.669752 
L 472.616172 259.228684 
L 495.381126 245.673418 
L 518.334661 232.060151 
L 541.406999 218.425102 
L 564.546574 204.793783 
L 587.713326 191.185154 
L 610.874974 177.613883 
L 634.003613 164.092375 
L 657.073298 150.632192 
L 680.060397 137.243857 
L 702.945781 123.935589 
L 725.715125 110.7131 
L 748.35501 97.581814 
" style="fill:none;stroke:#ff00ff;stroke-linecap:square;"/>
   </g>
   <g id="line2d_38">
    <path clip-path="url(#pff96637df4)" d="M 318.645071 352.161082 
L 318.648418 352.146089 
L 318.667909 352.107976 
L 318.820185 351.935884 
L 319.283397 351.532415 
L 319.904461 351.044346 
L 321.336204 349.985921 
L 323.313337 348.585142 
L 327.419256 345.771233 
L 331.99435 342.712629 
L 341.126781 336.735852 
L 353.232833 328.967408 
L 368.685985 319.207825 
L 386.809402 307.910249 
L 406.855754 295.545325 
L 428.12714 282.536526 
L 450.142661 269.166205 
L 472.616172 255.596035 
L 495.381126 241.915773 
L 518.334661 228.177994 
L 541.406999 214.416596 
L 564.546574 200.655601 
L 587.713326 186.913008 
L 610.874974 173.202913 
L 634.003613 159.537414 
L 657.073298 145.927935 
L 680.060397 132.384917 
L 702.945781 118.916447 
L 725.715125 105.528031 
L 748.35501 92.224849 
" style="fill:none;stroke:#ff00ff;stroke-linecap:square;"/>
   </g>
   <g id="line2d_39">
    <path clip-path="url(#pff96637df4)" d="M 318.645071 350.879541 
L 318.648418 350.882349 
L 318.667909 350.879519 
L 318.820185 350.808287 
L 319.283397 350.544141 
L 319.904461 350.168571 
L 321.336204 349.27535 
L 323.313337 348.017986 
L 327.419256 345.378242 
L 331.99435 342.428324 
L 341.126781 336.563862 
L 353.232833 328.863405 
L 368.685985 319.14433 
L 386.809402 307.869889 
L 406.855754 295.518278 
L 428.12714 282.517376 
L 450.142661 269.151947 
L 472.616172 255.58495 
L 495.381126 241.906829 
L 518.334661 228.170529 
L 541.406999 214.410172 
L 564.546574 200.649927 
L 587.713326 186.907911 
L 610.874974 173.198299 
L 634.003613 159.533231 
L 657.073298 145.924126 
L 680.060397 132.381393 
L 702.945781 118.913073 
L 725.715125 105.524638 
L 748.35501 92.221282 
" style="fill:none;stroke:#ff00ff;stroke-linecap:square;"/>
   </g>
   <g id="line2d_40">
    <path clip-path="url(#pff96637df4)" d="M 318.645071 350.876799 
L 318.648418 350.869612 
L 318.667909 350.846947 
L 318.820185 350.719002 
L 319.283397 350.377325 
L 319.904461 349.94081 
L 321.336204 348.963059 
L 323.313337 347.640283 
L 327.419256 344.939105 
L 331.99435 341.969218 
L 341.126781 336.115087 
L 353.232833 328.45396 
L 368.685985 318.785797 
L 386.809402 307.560425 
L 406.855754 295.250262 
L 428.12714 282.282241 
L 450.142661 268.942265 
L 472.616172 255.394858 
L 495.381126 241.731841 
L 518.334661 228.007244 
L 541.406999 214.255991 
L 564.546574 200.502821 
L 587.713326 186.766232 
L 610.874974 173.060645 
L 634.003613 159.39839 
L 657.073298 145.791079 
L 680.060397 132.249332 
L 702.945781 118.78141 
L 725.715125 105.392975 
L 748.35501 92.089346 
" style="fill:none;stroke:#ff00ff;stroke-linecap:square;"/>
   </g>
   <g id="line2d_41">
    <path clip-path="url(#pff96637df4)" d="M 429.236983 389.140743 
L 429.316413 389.223006 
L 429.734089 389.279411 
L 432.220904 388.993524 
L 435.988963 388.259 
L 444.224173 386.338383 
L 461.772125 381.743685 
L 479.509189 376.799425 
L 497.208846 371.707791 
L 514.802075 366.54797 
L 532.259631 361.360463 
L 549.567408 356.168782 
L 566.718857 350.987456 
L 583.70953 345.826416 
L 600.531823 340.694063 
L 617.174039 335.598421 
L 633.61685 330.548755 
L 643.781175 327.420657 
L 653.874106 324.31002 
L 669.898693 319.362769 
L 685.73727 314.463564 
L 701.381164 309.616166 
L 716.838987 304.818796 
L 732.110696 300.072215 
L 747.18321 295.381134 
" style="fill:none;stroke:#000080;stroke-linecap:square;"/>
   </g>
   <g id="line2d_42">
    <path clip-path="url(#pff96637df4)" d="M 429.236983 389.118813 
L 429.316413 388.993502 
L 429.734089 388.71063 
L 432.220904 387.644592 
L 435.988963 386.317661 
L 444.224173 383.673345 
L 461.772125 378.286379 
L 479.509189 372.86628 
L 497.208846 367.419202 
L 514.802075 361.962384 
L 532.259631 356.510312 
L 549.567408 351.073599 
L 566.718857 345.659644 
L 583.70953 340.274149 
L 600.531823 334.92291 
L 617.174039 329.612307 
L 633.61685 324.35062 
L 643.781175 321.091255 
L 653.874106 317.849927 
L 669.898693 312.69417 
L 685.73727 307.587324 
L 701.381164 302.532988 
L 716.838987 297.529027 
L 732.110696 292.57602 
L 747.18321 287.678782 
" style="fill:none;stroke:#000080;stroke-linecap:square;"/>
   </g>
   <g id="line2d_43">
    <path clip-path="url(#pff96637df4)" d="M 429.236983 381.979678 
L 429.316413 382.185026 
L 429.734089 382.421901 
L 432.220904 382.470261 
L 435.988963 381.924681 
L 444.224173 380.15428 
L 461.772125 375.574781 
L 479.509189 370.521193 
L 497.208846 365.27265 
L 514.802075 359.93087 
L 532.259631 354.545355 
L 549.567408 349.143898 
L 566.718857 343.743315 
L 583.70953 338.354904 
L 600.531823 332.98802 
L 617.174039 327.651459 
L 633.61685 322.35523 
L 643.781175 319.070502 
L 653.874106 315.801143 
L 669.898693 310.59531 
L 685.73727 305.432474 
L 701.381164 300.31662 
L 716.838987 295.245811 
L 732.110696 290.220713 
L 747.18321 285.246137 
" style="fill:none;stroke:#000080;stroke-linecap:square;"/>
   </g>
   <g id="line2d_44">
    <path clip-path="url(#pff96637df4)" d="M 429.236983 381.930378 
L 429.316413 381.6685 
L 429.734089 381.134292 
L 432.220904 379.312414 
L 435.988963 377.16138 
L 444.224173 373.008362 
L 461.772125 364.887119 
L 479.509189 357.056549 
L 497.208846 349.435458 
L 514.802075 341.986427 
L 532.259631 334.687265 
L 549.567408 327.522875 
L 566.718857 320.481928 
L 583.70953 313.556239 
L 600.531823 306.74141 
L 617.174039 300.036331 
L 633.61685 293.444058 
L 643.781175 289.38387 
L 653.874106 285.3628 
L 669.898693 278.999058 
L 685.73727 272.732521 
L 701.381164 266.564427 
L 716.838987 260.489476 
L 732.110696 254.506044 
L 747.18321 248.617804 
" style="fill:none;stroke:#000080;stroke-linecap:square;"/>
   </g>
   <g id="line2d_45">
    <path clip-path="url(#pff96637df4)" d="M 429.236983 335.998754 
L 429.316413 336.107872 
L 429.734089 336.177453 
L 432.220904 335.758886 
L 435.988963 334.721926 
L 444.224173 332.03655 
L 461.772125 325.652775 
L 479.509189 318.809149 
L 497.208846 311.776473 
L 514.802075 304.659746 
L 532.259631 297.51225 
L 549.567408 290.364676 
L 566.718857 283.235831 
L 583.70953 276.138494 
L 600.531823 269.083552 
L 617.174039 262.08152 
L 633.61685 255.144721 
L 643.781175 250.848514 
L 653.874106 246.576914 
L 669.898693 239.784424 
L 685.73727 233.059237 
L 701.381164 226.40637 
L 716.838987 219.823209 
L 732.110696 213.310589 
L 747.18321 206.874742 
" style="fill:none;stroke:#000080;stroke-linecap:square;"/>
   </g>
   <g id="line2d_46">
    <path clip-path="url(#pff96637df4)" d="M 429.236983 335.969351 
L 429.316413 335.800216 
L 429.734089 335.414921 
L 432.220904 333.949446 
L 435.988963 332.115741 
L 444.224173 328.453111 
L 461.772125 320.991074 
L 479.509189 313.494234 
L 497.208846 305.971166 
L 514.802075 298.443701 
L 532.259631 290.930024 
L 549.567408 283.443336 
L 566.718857 275.992698 
L 583.70953 268.585044 
L 600.531823 261.227616 
L 617.174039 253.928613 
L 633.61685 246.698992 
L 643.781175 242.22155 
L 653.874106 237.769572 
L 669.898693 230.689465 
L 685.73727 223.678101 
L 701.381164 216.740338 
L 716.838987 209.873161 
L 732.110696 203.077231 
L 747.18321 196.358933 
" style="fill:none;stroke:#000080;stroke-linecap:square;"/>
   </g>
   <g id="line2d_47">
    <path clip-path="url(#pff96637df4)" d="M 429.236983 326.438342 
L 429.316413 326.709618 
L 429.734089 327.01617 
L 432.220904 327.03257 
L 435.988963 326.23681 
L 444.224173 323.734142 
L 461.772125 317.342686 
L 479.509189 310.330875 
L 497.208846 303.069772 
L 514.802075 295.693327 
L 532.259631 288.266187 
L 549.567408 280.824359 
L 566.718857 273.389433 
L 583.70953 265.975826 
L 600.531823 258.595549 
L 617.174039 251.260003 
L 633.61685 243.982374 
L 643.781175 239.469833 
L 653.874106 234.979109 
L 669.898693 227.829766 
L 685.73727 220.740849 
L 701.381164 213.717646 
L 716.838987 206.757384 
L 732.110696 199.86094 
L 747.18321 193.034955 
" style="fill:none;stroke:#000080;stroke-linecap:square;"/>
   </g>
   <g id="line2d_48">
    <path clip-path="url(#pff96637df4)" d="M 429.236983 326.37283 
L 429.316413 326.023294 
L 429.734089 325.305135 
L 432.220904 322.834014 
L 435.988963 319.898716 
L 444.224173 314.210463 
L 461.772125 303.056239 
L 479.509189 292.286426 
L 497.208846 281.799393 
L 514.802075 271.547383 
L 532.259631 261.501622 
L 549.567408 251.642246 
L 566.718857 241.954139 
L 583.70953 232.426263 
L 600.531823 223.052638 
L 617.174039 213.831705 
L 633.61685 204.767575 
L 643.781175 199.185777 
L 653.874106 193.65835 
L 669.898693 184.911832 
L 685.73727 176.300293 
L 701.381164 167.825328 
L 716.838987 159.479544 
L 732.110696 151.260591 
L 747.18321 143.173395 
" style="fill:none;stroke:#000080;stroke-linecap:square;"/>
   </g>
   <g id="line2d_49">
    <path clip-path="url(#pff96637df4)" d="M 429.236983 274.283364 
L 429.316413 274.315276 
L 429.734089 274.190906 
L 432.220904 272.979213 
L 435.988963 270.932152 
L 444.224173 266.270715 
L 461.772125 256.100591 
L 479.509189 245.712596 
L 497.208846 235.30259 
L 514.802075 224.933337 
L 532.259631 214.632437 
L 549.567408 204.413681 
L 566.718857 194.283965 
L 583.70953 184.247575 
L 600.531823 174.309851 
L 617.174039 164.478036 
L 633.61685 154.763577 
L 643.781175 148.75817 
L 653.874106 142.794649 
L 669.898693 133.325554 
L 685.73727 123.965134 
L 701.381164 114.718199 
L 716.838987 105.579312 
L 732.110696 96.548122 
L 747.18321 87.631969 
" style="fill:none;stroke:#000080;stroke-linecap:square;"/>
   </g>
   <g id="line2d_50">
    <path clip-path="url(#pff96637df4)" d="M 429.236983 274.26625 
L 429.316413 274.136223 
L 429.734089 273.744724 
L 432.220904 271.886828 
L 435.988963 269.288436 
L 444.224173 263.817045 
L 461.772125 252.463549 
L 479.509189 241.162473 
L 497.208846 229.978047 
L 514.802075 218.921036 
L 532.259631 207.991902 
L 549.567408 197.188102 
L 566.718857 186.505759 
L 583.70953 175.941647 
L 600.531823 165.495767 
L 617.174039 155.171602 
L 633.61685 144.978178 
L 643.781175 138.679551 
L 653.874106 132.426572 
L 669.898693 122.500571 
L 685.73727 112.690735 
L 701.381164 103.00107 
L 716.838987 93.425027 
L 732.110696 83.961341 
L 747.18321 74.616701 
" style="fill:none;stroke:#000080;stroke-linecap:square;"/>
   </g>
   <g id="line2d_51">
    <path clip-path="url(#pff96637df4)" d="M 429.236983 271.783407 
L 429.316413 271.76836 
L 429.734089 271.55798 
L 432.220904 270.089859 
L 435.988963 267.765779 
L 444.224173 262.602068 
L 461.772125 251.533552 
L 479.509189 240.361781 
L 497.208846 229.247025 
L 514.802075 218.229831 
L 532.259631 207.322906 
L 549.567408 196.529589 
L 566.718857 185.849206 
L 583.70953 175.280597 
L 600.531823 164.82529 
L 617.174039 154.487824 
L 633.61685 144.277773 
L 643.781175 137.967143 
L 653.874106 131.700882 
L 669.898693 121.750776 
L 685.73727 111.913092 
L 701.381164 102.19166 
L 716.838987 92.580117 
L 732.110696 83.07784 
L 747.18321 73.692325 
" style="fill:none;stroke:#000080;stroke-linecap:square;"/>
   </g>
   <g id="line2d_52">
    <path clip-path="url(#pff96637df4)" d="M 429.236983 271.775714 
L 429.316413 271.688221 
L 429.734089 271.359472 
L 432.220904 269.619753 
L 435.988963 267.090527 
L 444.224173 261.678596 
L 461.772125 250.343061 
L 479.509189 239.013041 
L 497.208846 227.779464 
L 514.802075 216.660892 
L 532.259631 205.66082 
L 549.567408 194.77816 
L 566.718857 184.009925 
L 583.70953 173.353529 
L 600.531823 162.809426 
L 617.174039 152.381351 
L 633.61685 142.078309 
L 643.781175 135.708156 
L 653.874106 129.381062 
L 669.898693 119.330612 
L 685.73727 109.389212 
L 701.381164 99.561075 
L 716.838987 89.839806 
L 732.110696 80.224406 
L 747.18321 70.722158 
" style="fill:none;stroke:#000080;stroke-linecap:square;"/>
   </g>
   <g id="patch_3">
    <path d="M 84.188976 59.527559 
L 757.700787 59.527559 
" style="fill:none;stroke:#000000;stroke-linecap:square;stroke-linejoin:miter;"/>
   </g>
   <g id="patch_4">
    <path d="M 757.700787 535.748031 
L 757.700787 59.527559 
" style="fill:none;stroke:#000000;stroke-linecap:square;stroke-linejoin:miter;"/>
   </g>
   <g id="patch_5">
    <path d="M 84.188976 535.748031 
L 757.700787 535.748031 
" style="fill:none;stroke:#000000;stroke-linecap:square;stroke-linejoin:miter;"/>
   </g>
   <g id="patch_6">
    <path d="M 84.188976 535.748031 
L 84.188976 59.527559 
" style="fill:none;stroke:#000000;stroke-linecap:square;stroke-linejoin:miter;"/>
   </g>
   <g id="matplotlib.axis_1">
    <g id="xtick_1">
     <g id="line2d_53">
      <defs>
       <path d="M 0 0 
L 0 -4 
" id="mc589226a7f" style="stroke:#000000;stroke-width:0.5;"/>
      </defs>
      <g>
       <use style="stroke:#000000;stroke-width:0.5;" x="84.1889763778" xlink:href="#mc589226a7f" y="535.748031494"/>
      </g>
     </g>
     <g id="line2d_54">
      <defs>
       <path d="M 0 0 
L 0 4 
" id="m8ecc4b2e95" style="stroke:#000000;stroke-width:0.5;"/>
      </defs>
      <g>
       <use style="stroke:#000000;stroke-width:0.5;" x="84.1889763778" xlink:href="#m8ecc4b2e95" y="59.5275590549"/>
      </g>
     </g>
     <g id="text_1">
      <!-- 0 -->
      <defs>
       <path d="M 31.78125 66.40625 
Q 24.171875 66.40625 20.328125 58.90625 
Q 16.5 51.421875 16.5 36.375 
Q 16.5 21.390625 20.328125 13.890625 
Q 24.171875 6.390625 31.78125 6.390625 
Q 39.453125 6.390625 43.28125 13.890625 
Q 47.125 21.390625 47.125 36.375 
Q 47.125 51.421875 43.28125 58.90625 
Q 39.453125 66.40625 31.78125 66.40625 
M 31.78125 74.21875 
Q 44.046875 74.21875 50.515625 64.515625 
Q 56.984375 54.828125 56.984375 36.375 
Q 56.984375 17.96875 50.515625 8.265625 
Q 44.046875 -1.421875 31.78125 -1.421875 
Q 19.53125 -1.421875 13.0625 8.265625 
Q 6.59375 17.96875 6.59375 36.375 
Q 6.59375 54.828125 13.0625 64.515625 
Q 19.53125 74.21875 31.78125 74.21875 
" id="BitstreamVeraSans-Roman-30"/>
      </defs>
      <g transform="translate(80.3714763778 548.866156494)scale(0.12 -0.12)">
       <use xlink:href="#BitstreamVeraSans-Roman-30"/>
      </g>
     </g>
    </g>
    <g id="xtick_2">
     <g id="line2d_55">
      <g>
       <use style="stroke:#000000;stroke-width:0.5;" x="218.891338582" xlink:href="#mc589226a7f" y="535.748031494"/>
      </g>
     </g>
     <g id="line2d_56">
      <g>
       <use style="stroke:#000000;stroke-width:0.5;" x="218.891338582" xlink:href="#m8ecc4b2e95" y="59.5275590549"/>
      </g>
     </g>
     <g id="text_2">
      <!-- 5 -->
      <defs>
       <path d="M 10.796875 72.90625 
L 49.515625 72.90625 
L 49.515625 64.59375 
L 19.828125 64.59375 
L 19.828125 46.734375 
Q 21.96875 47.46875 24.109375 47.828125 
Q 26.265625 48.1875 28.421875 48.1875 
Q 40.625 48.1875 47.75 41.5 
Q 54.890625 34.8125 54.890625 23.390625 
Q 54.890625 11.625 47.5625 5.09375 
Q 40.234375 -1.421875 26.90625 -1.421875 
Q 22.3125 -1.421875 17.546875 -0.640625 
Q 12.796875 0.140625 7.71875 1.703125 
L 7.71875 11.625 
Q 12.109375 9.234375 16.796875 8.0625 
Q 21.484375 6.890625 26.703125 6.890625 
Q 35.15625 6.890625 40.078125 11.328125 
Q 45.015625 15.765625 45.015625 23.390625 
Q 45.015625 31 40.078125 35.4375 
Q 35.15625 39.890625 26.703125 39.890625 
Q 22.75 39.890625 18.8125 39.015625 
Q 14.890625 38.140625 10.796875 36.28125 
z
" id="BitstreamVeraSans-Roman-35"/>
      </defs>
      <g transform="translate(215.073838582 548.866156494)scale(0.12 -0.12)">
       <use xlink:href="#BitstreamVeraSans-Roman-35"/>
      </g>
     </g>
    </g>
    <g id="xtick_3">
     <g id="line2d_57">
      <g>
       <use style="stroke:#000000;stroke-width:0.5;" x="353.593700787" xlink:href="#mc589226a7f" y="535.748031494"/>
      </g>
     </g>
     <g id="line2d_58">
      <g>
       <use style="stroke:#000000;stroke-width:0.5;" x="353.593700787" xlink:href="#m8ecc4b2e95" y="59.5275590549"/>
      </g>
     </g>
     <g id="text_3">
      <!-- 10 -->
      <defs>
       <path d="M 12.40625 8.296875 
L 28.515625 8.296875 
L 28.515625 63.921875 
L 10.984375 60.40625 
L 10.984375 69.390625 
L 28.421875 72.90625 
L 38.28125 72.90625 
L 38.28125 8.296875 
L 54.390625 8.296875 
L 54.390625 0 
L 12.40625 0 
z
" id="BitstreamVeraSans-Roman-31"/>
      </defs>
      <g transform="translate(345.958700787 548.866156494)scale(0.12 -0.12)">
       <use xlink:href="#BitstreamVeraSans-Roman-31"/>
       <use x="63.623046875" xlink:href="#BitstreamVeraSans-Roman-30"/>
      </g>
     </g>
    </g>
    <g id="xtick_4">
     <g id="line2d_59">
      <g>
       <use style="stroke:#000000;stroke-width:0.5;" x="488.296062991" xlink:href="#mc589226a7f" y="535.748031494"/>
      </g>
     </g>
     <g id="line2d_60">
      <g>
       <use style="stroke:#000000;stroke-width:0.5;" x="488.296062991" xlink:href="#m8ecc4b2e95" y="59.5275590549"/>
      </g>
     </g>
     <g id="text_4">
      <!-- 15 -->
      <g transform="translate(480.661062991 548.866156494)scale(0.12 -0.12)">
       <use xlink:href="#BitstreamVeraSans-Roman-31"/>
       <use x="63.623046875" xlink:href="#BitstreamVeraSans-Roman-35"/>
      </g>
     </g>
    </g>
    <g id="xtick_5">
     <g id="line2d_61">
      <g>
       <use style="stroke:#000000;stroke-width:0.5;" x="622.998425195" xlink:href="#mc589226a7f" y="535.748031494"/>
      </g>
     </g>
     <g id="line2d_62">
      <g>
       <use style="stroke:#000000;stroke-width:0.5;" x="622.998425195" xlink:href="#m8ecc4b2e95" y="59.5275590549"/>
      </g>
     </g>
     <g id="text_5">
      <!-- 20 -->
      <defs>
       <path d="M 19.1875 8.296875 
L 53.609375 8.296875 
L 53.609375 0 
L 7.328125 0 
L 7.328125 8.296875 
Q 12.9375 14.109375 22.625 23.890625 
Q 32.328125 33.6875 34.8125 36.53125 
Q 39.546875 41.84375 41.421875 45.53125 
Q 43.3125 49.21875 43.3125 52.78125 
Q 43.3125 58.59375 39.234375 62.25 
Q 35.15625 65.921875 28.609375 65.921875 
Q 23.96875 65.921875 18.8125 64.3125 
Q 13.671875 62.703125 7.8125 59.421875 
L 7.8125 69.390625 
Q 13.765625 71.78125 18.9375 73 
Q 24.125 74.21875 28.421875 74.21875 
Q 39.75 74.21875 46.484375 68.546875 
Q 53.21875 62.890625 53.21875 53.421875 
Q 53.21875 48.921875 51.53125 44.890625 
Q 49.859375 40.875 45.40625 35.40625 
Q 44.1875 33.984375 37.640625 27.21875 
Q 31.109375 20.453125 19.1875 8.296875 
" id="BitstreamVeraSans-Roman-32"/>
      </defs>
      <g transform="translate(615.363425195 548.866156494)scale(0.12 -0.12)">
       <use xlink:href="#BitstreamVeraSans-Roman-32"/>
       <use x="63.623046875" xlink:href="#BitstreamVeraSans-Roman-30"/>
      </g>
     </g>
    </g>
    <g id="xtick_6">
     <g id="line2d_63">
      <g>
       <use style="stroke:#000000;stroke-width:0.5;" x="757.7007874" xlink:href="#mc589226a7f" y="535.748031494"/>
      </g>
     </g>
     <g id="line2d_64">
      <g>
       <use style="stroke:#000000;stroke-width:0.5;" x="757.7007874" xlink:href="#m8ecc4b2e95" y="59.5275590549"/>
      </g>
     </g>
     <g id="text_6">
      <!-- 25 -->
      <g transform="translate(750.0657874 548.866156494)scale(0.12 -0.12)">
       <use xlink:href="#BitstreamVeraSans-Roman-32"/>
       <use x="63.623046875" xlink:href="#BitstreamVeraSans-Roman-35"/>
      </g>
     </g>
    </g>
   </g>
   <g id="matplotlib.axis_2">
    <g id="ytick_1">
     <g id="line2d_65">
      <defs>
       <path d="M 0 0 
L 4 0 
" id="mc8a894bfa2" style="stroke:#000000;stroke-width:0.5;"/>
      </defs>
      <g>
       <use style="stroke:#000000;stroke-width:0.5;" x="84.1889763778" xlink:href="#mc8a894bfa2" y="535.748031494"/>
      </g>
     </g>
     <g id="line2d_66">
      <defs>
       <path d="M 0 0 
L -4 0 
" id="ma48730f481" style="stroke:#000000;stroke-width:0.5;"/>
      </defs>
      <g>
       <use style="stroke:#000000;stroke-width:0.5;" x="757.7007874" xlink:href="#ma48730f481" y="535.748031494"/>
      </g>
     </g>
     <g id="text_7">
      <!-- 0 -->
      <g transform="translate(72.5539763778 539.059281494)scale(0.12 -0.12)">
       <use xlink:href="#BitstreamVeraSans-Roman-30"/>
      </g>
     </g>
    </g>
    <g id="ytick_2">
     <g id="line2d_67">
      <g>
       <use style="stroke:#000000;stroke-width:0.5;" x="84.1889763778" xlink:href="#mc8a894bfa2" y="467.716535431"/>
      </g>
     </g>
     <g id="line2d_68">
      <g>
       <use style="stroke:#000000;stroke-width:0.5;" x="757.7007874" xlink:href="#ma48730f481" y="467.716535431"/>
      </g>
     </g>
     <g id="text_8">
      <!-- 5 -->
      <g transform="translate(72.5539763778 471.027785431)scale(0.12 -0.12)">
       <use xlink:href="#BitstreamVeraSans-Roman-35"/>
      </g>
     </g>
    </g>
    <g id="ytick_3">
     <g id="line2d_69">
      <g>
       <use style="stroke:#000000;stroke-width:0.5;" x="84.1889763778" xlink:href="#mc8a894bfa2" y="399.685039368"/>
      </g>
     </g>
     <g id="line2d_70">
      <g>
       <use style="stroke:#000000;stroke-width:0.5;" x="757.7007874" xlink:href="#ma48730f481" y="399.685039368"/>
      </g>
     </g>
     <g id="text_9">
      <!-- 10 -->
      <g transform="translate(64.9189763778 402.996289368)scale(0.12 -0.12)">
       <use xlink:href="#BitstreamVeraSans-Roman-31"/>
       <use x="63.623046875" xlink:href="#BitstreamVeraSans-Roman-30"/>
      </g>
     </g>
    </g>
    <g id="ytick_4">
     <g id="line2d_71">
      <g>
       <use style="stroke:#000000;stroke-width:0.5;" x="84.1889763778" xlink:href="#mc8a894bfa2" y="331.653543306"/>
      </g>
     </g>
     <g id="line2d_72">
      <g>
       <use style="stroke:#000000;stroke-width:0.5;" x="757.7007874" xlink:href="#ma48730f481" y="331.653543306"/>
      </g>
     </g>
     <g id="text_10">
      <!-- 15 -->
      <g transform="translate(64.9189763778 334.964793306)scale(0.12 -0.12)">
       <use xlink:href="#BitstreamVeraSans-Roman-31"/>
       <use x="63.623046875" xlink:href="#BitstreamVeraSans-Roman-35"/>
      </g>
     </g>
    </g>
    <g id="ytick_5">
     <g id="line2d_73">
      <g>
       <use style="stroke:#000000;stroke-width:0.5;" x="84.1889763778" xlink:href="#mc8a894bfa2" y="263.622047243"/>
      </g>
     </g>
     <g id="line2d_74">
      <g>
       <use style="stroke:#000000;stroke-width:0.5;" x="757.7007874" xlink:href="#ma48730f481" y="263.622047243"/>
      </g>
     </g>
     <g id="text_11">
      <!-- 20 -->
      <g transform="translate(64.9189763778 266.933297243)scale(0.12 -0.12)">
       <use xlink:href="#BitstreamVeraSans-Roman-32"/>
       <use x="63.623046875" xlink:href="#BitstreamVeraSans-Roman-30"/>
      </g>
     </g>
    </g>
    <g id="ytick_6">
     <g id="line2d_75">
      <g>
       <use style="stroke:#000000;stroke-width:0.5;" x="84.1889763778" xlink:href="#mc8a894bfa2" y="195.59055118"/>
      </g>
     </g>
     <g id="line2d_76">
      <g>
       <use style="stroke:#000000;stroke-width:0.5;" x="757.7007874" xlink:href="#ma48730f481" y="195.59055118"/>
      </g>
     </g>
     <g id="text_12">
      <!-- 25 -->
      <g transform="translate(64.9189763778 198.90180118)scale(0.12 -0.12)">
       <use xlink:href="#BitstreamVeraSans-Roman-32"/>
       <use x="63.623046875" xlink:href="#BitstreamVeraSans-Roman-35"/>
      </g>
     </g>
    </g>
    <g id="ytick_7">
     <g id="line2d_77">
      <g>
       <use style="stroke:#000000;stroke-width:0.5;" x="84.1889763778" xlink:href="#mc8a894bfa2" y="127.559055118"/>
      </g>
     </g>
     <g id="line2d_78">
      <g>
       <use style="stroke:#000000;stroke-width:0.5;" x="757.7007874" xlink:href="#ma48730f481" y="127.559055118"/>
      </g>
     </g>
     <g id="text_13">
      <!-- 30 -->
      <defs>
       <path d="M 40.578125 39.3125 
Q 47.65625 37.796875 51.625 33 
Q 55.609375 28.21875 55.609375 21.1875 
Q 55.609375 10.40625 48.1875 4.484375 
Q 40.765625 -1.421875 27.09375 -1.421875 
Q 22.515625 -1.421875 17.65625 -0.515625 
Q 12.796875 0.390625 7.625 2.203125 
L 7.625 11.71875 
Q 11.71875 9.328125 16.59375 8.109375 
Q 21.484375 6.890625 26.8125 6.890625 
Q 36.078125 6.890625 40.9375 10.546875 
Q 45.796875 14.203125 45.796875 21.1875 
Q 45.796875 27.640625 41.28125 31.265625 
Q 36.765625 34.90625 28.71875 34.90625 
L 20.21875 34.90625 
L 20.21875 43.015625 
L 29.109375 43.015625 
Q 36.375 43.015625 40.234375 45.921875 
Q 44.09375 48.828125 44.09375 54.296875 
Q 44.09375 59.90625 40.109375 62.90625 
Q 36.140625 65.921875 28.71875 65.921875 
Q 24.65625 65.921875 20.015625 65.03125 
Q 15.375 64.15625 9.8125 62.3125 
L 9.8125 71.09375 
Q 15.4375 72.65625 20.34375 73.4375 
Q 25.25 74.21875 29.59375 74.21875 
Q 40.828125 74.21875 47.359375 69.109375 
Q 53.90625 64.015625 53.90625 55.328125 
Q 53.90625 49.265625 50.4375 45.09375 
Q 46.96875 40.921875 40.578125 39.3125 
" id="BitstreamVeraSans-Roman-33"/>
      </defs>
      <g transform="translate(64.9189763778 130.870305118)scale(0.12 -0.12)">
       <use xlink:href="#BitstreamVeraSans-Roman-33"/>
       <use x="63.623046875" xlink:href="#BitstreamVeraSans-Roman-30"/>
      </g>
     </g>
    </g>
    <g id="ytick_8">
     <g id="line2d_79">
      <g>
       <use style="stroke:#000000;stroke-width:0.5;" x="84.1889763778" xlink:href="#mc8a894bfa2" y="59.5275590549"/>
      </g>
     </g>
     <g id="line2d_80">
      <g>
       <use style="stroke:#000000;stroke-width:0.5;" x="757.7007874" xlink:href="#ma48730f481" y="59.5275590549"/>
      </g>
     </g>
     <g id="text_14">
      <!-- 35 -->
      <g transform="translate(64.9189763778 62.8388090549)scale(0.12 -0.12)">
       <use xlink:href="#BitstreamVeraSans-Roman-33"/>
       <use x="63.623046875" xlink:href="#BitstreamVeraSans-Roman-35"/>
      </g>
     </g>
    </g>
   </g>
  </g>
 </g>
 <defs>
  <clipPath id="pff96637df4">
   <rect height="476.220472439" width="673.511811022" x="84.1889763778" y="59.5275590549"/>
  </clipPath>
 </defs>
</svg>
