<?xml version="1.0" encoding="utf-8" standalone="no"?>
<!DOCTYPE svg PUBLIC "-//W3C//DTD SVG 1.1//EN"
  "http://www.w3.org/Graphics/SVG/1.1/DTD/svg11.dtd">
<!-- Created with matplotlib (http://matplotlib.org/) -->
<svg height="432pt" version="1.1" viewBox="0 0 576 432" width="576pt" xmlns="http://www.w3.org/2000/svg" xmlns:xlink="http://www.w3.org/1999/xlink">
 <defs>
  <style type="text/css">
*{stroke-linecap:butt;stroke-linejoin:round;stroke-miterlimit:100000;}
  </style>
 </defs>
 <g id="figure_1">
  <g id="patch_1">
   <path d="M 0 432 
L 576 432 
L 576 0 
L 0 0 
z
" style="fill:#ffffff;"/>
  </g>
  <g id="axes_1">
   <g id="patch_2">
    <path d="M 57.6 388.8 
L 518.4 388.8 
L 518.4 43.2 
L 57.6 43.2 
z
" style="fill:#ffffff;"/>
   </g>
   <g id="line2d_1">
    <path clip-path="url(#p148fde2026)" d="M 473.964956 194.362616 
L 463.721256 198.678244 
L 453.152283 203.142349 
L 442.263672 207.753545 
L 431.069067 212.507096 
L 419.576105 217.400871 
L 407.782406 222.437129 
L 395.68334 227.619279 
L 383.281091 232.948043 
L 370.585359 238.421131 
L 357.607845 244.035634 
L 344.359795 249.78913 
L 330.855361 255.678315 
L 317.114828 261.697704 
L 303.164193 267.83995 
L 289.034446 274.096382 
L 274.762858 280.456805 
L 260.394511 286.909451 
L 245.984202 293.441305 
L 231.608635 300.034919 
L 217.343112 306.684667 
L 203.2815 313.404244 
L 191.600458 319.226787 
L 181.155035 325.026465 
L 178.960469 326.683807 
L 178.703653 327.009473 
L 178.623164 327.305708 
L 178.708542 327.448712 
L 178.823593 327.516439 
L 178.960239 327.559283 
L 179.129995 327.587658 
L 179.345606 327.60239 
L 179.626934 327.600662 
L 180.005935 327.575541 
L 180.535496 327.513483 
L 181.306439 327.388823 
L 182.481117 327.152233 
L 184.360362 326.706592 
L 187.273169 325.92581 
L 191.045395 324.824836 
L 195.721439 323.379567 
L 201.092372 321.652661 
L 206.888562 319.737274 
L 212.89951 317.712103 
L 219.002602 315.62673 
L 225.133415 313.509578 
L 231.258018 311.377091 
L 237.357634 309.239271 
L 243.42118 307.102561 
L 249.44169 304.971332 
L 255.414541 302.848676 
L 261.336492 300.736868 
L 267.205133 298.637639 
L 273.018584 296.552348 
L 278.775376 294.482068 
L 284.474421 292.427627 
L 290.11494 290.389661 
L 295.696304 288.368686 
L 301.217855 286.36518 
L 306.678845 284.379613 
L 312.078578 282.412405 
L 317.416669 280.463837 
L 322.693216 278.53399 
L 327.908731 276.622778 
L 333.063794 274.730069 
L 338.158635 272.855848 
L 343.192903 271.000303 
L 348.165801 269.163784 
L 353.076571 267.346626 
L 357.925076 265.548933 
L 362.712153 263.770447 
L 367.439504 262.010583 
L 372.109127 260.268638 
L 376.72252 258.54409 
L 381.279981 256.83686 
L 385.780362 255.147411 
L 390.221422 253.47662 
L 394.600721 251.825446 
L 398.91672 250.194513 
L 403.169623 248.583787 
L 407.361643 246.992467 
L 411.496584 245.419144 
L 415.578903 243.862148 
L 419.612524 242.320007 
L 423.599725 240.791871 
L 427.540403 239.277803 
L 431.431986 237.778826 
L 435.270118 236.296657 
L 439.049999 234.833204 
L 442.767951 233.389957 
L 446.422681 231.967489 
L 450.01583 230.565239 
L 453.551743 229.181585 
L 457.036625 227.814164 
L 460.47738 226.460314 
L 463.880333 225.117573 
" style="fill:none;stroke:#00ff00;stroke-linecap:square;"/>
   </g>
   <g id="line2d_2">
    <path clip-path="url(#p148fde2026)" d="M 473.964956 122.645383 
L 463.721256 128.562178 
L 453.152283 134.682754 
L 442.263672 141.00532 
L 431.069067 147.523528 
L 419.576105 154.234619 
L 407.782406 161.141861 
L 395.68334 168.250095 
L 383.281091 175.56047 
L 370.585359 183.070023 
L 357.607845 190.774974 
L 344.359795 198.672278 
L 330.855361 206.757758 
L 317.114828 215.024319 
L 303.164193 223.462379 
L 289.034446 232.06061 
L 274.762858 240.805647 
L 260.394511 249.681985 
L 245.984202 258.672324 
L 231.608635 267.752912 
L 217.343112 276.915297 
L 203.2815 286.175001 
L 191.600458 294.191053 
L 181.155035 302.140689 
L 178.960469 304.387211 
L 178.703653 304.823439 
L 178.623164 305.215885 
L 178.708542 305.401884 
L 178.823593 305.487935 
L 178.960239 305.540641 
L 179.129995 305.573412 
L 179.345606 305.587003 
L 179.626934 305.577191 
L 180.005935 305.534026 
L 180.535496 305.438328 
L 181.306439 305.254029 
L 182.481117 304.912187 
L 184.360362 304.277729 
L 187.273169 303.177394 
L 191.045395 301.636461 
L 195.721439 299.623171 
L 201.092372 297.225693 
L 206.888562 294.573111 
L 212.89951 291.773626 
L 219.002602 288.894921 
L 225.133415 285.975496 
L 231.258018 283.037443 
L 237.357634 280.094082 
L 243.42118 277.153928 
L 249.44169 274.222712 
L 255.414541 271.304462 
L 261.336492 268.402121 
L 267.205133 265.517922 
L 273.018584 262.653611 
L 278.775376 259.810561 
L 284.474421 256.989827 
L 290.11494 254.192207 
L 295.696304 251.418349 
L 301.217855 248.668852 
L 306.678845 245.94431 
L 312.078578 243.245256 
L 317.416669 240.572038 
L 322.693216 237.924738 
L 327.908731 235.303209 
L 333.063794 232.707256 
L 338.158635 230.136842 
L 343.192903 227.592217 
L 348.165801 225.073851 
L 353.076571 222.582191 
L 357.925076 220.117365 
L 362.712153 217.679006 
L 367.439504 215.266295 
L 372.109127 212.878256 
L 376.72252 210.514158 
L 381.279981 208.173878 
L 385.780362 205.858039 
L 390.221422 203.567831 
L 394.600721 201.304556 
L 398.91672 199.069067 
L 403.169623 196.861318 
L 407.361643 194.680222 
L 411.496584 192.523856 
L 415.578903 190.389943 
L 419.612524 188.276468 
L 423.599725 186.182262 
L 427.540403 184.107404 
L 431.431986 182.053275 
L 435.270118 180.022214 
L 439.049999 178.016824 
L 442.767951 176.039134 
L 446.422681 174.089927 
L 450.01583 172.168427 
L 453.551743 170.272405 
L 457.036625 168.398614 
L 460.47738 166.543399 
L 463.880333 164.703382 
" style="fill:none;stroke:#00ff00;stroke-linecap:square;"/>
   </g>
   <g id="line2d_3">
    <path clip-path="url(#p148fde2026)" d="M 473.964956 89.895764 
L 463.721256 96.829966 
L 453.152283 103.959757 
L 442.263672 111.281295 
L 431.069067 118.785553 
L 419.576105 126.46777 
L 407.782406 134.330108 
L 395.68334 142.376428 
L 383.281091 150.606283 
L 370.585359 159.014481 
L 357.607845 167.594779 
L 344.359795 176.341505 
L 330.855361 185.24734 
L 317.114828 194.301203 
L 303.164193 203.488522 
L 289.034446 212.791655 
L 274.762858 222.188917 
L 260.394511 231.653298 
L 245.984202 241.15068 
L 231.608635 250.63071 
L 217.343112 260.039708 
L 203.2815 269.300761 
L 191.600458 276.946563 
L 181.155035 283.602015 
L 178.960469 284.847085 
L 178.703653 284.946091 
L 178.623164 284.908358 
L 178.708542 284.786528 
L 178.823593 284.666632 
L 178.960239 284.537567 
L 179.129995 284.386057 
L 179.345606 284.201208 
L 179.626934 283.9675 
L 180.005935 283.660821 
L 180.535496 283.242031 
L 181.306439 282.644825 
L 182.481117 281.752047 
L 184.360362 280.349024 
L 187.273169 278.209341 
L 191.045395 275.474957 
L 195.721439 272.120324 
L 201.092372 268.298217 
L 206.888562 264.199208 
L 212.89951 259.968796 
L 219.002602 255.689609 
L 225.133415 251.40359 
L 231.258018 247.131808 
L 237.357634 242.885203 
L 243.42118 238.669727 
L 249.44169 234.488759 
L 255.414541 230.344283 
L 261.336492 226.237502 
L 267.205133 222.169192 
L 273.018584 218.13988 
L 278.775376 214.149911 
L 284.474421 210.199447 
L 290.11494 206.288509 
L 295.696304 202.417071 
L 301.217855 198.58518 
L 306.678845 194.792988 
L 312.078578 191.040649 
L 317.416669 187.328137 
L 322.693216 183.655119 
L 327.908731 180.021008 
L 333.063794 176.425196 
L 338.158635 172.867348 
L 343.192903 169.347562 
L 348.165801 165.86627 
L 353.076571 162.423898 
L 357.925076 159.020448 
L 362.712153 155.65525 
L 367.439504 152.32703 
L 372.109127 149.034304 
L 376.72252 145.775939 
L 381.279981 142.551645 
L 385.780362 139.362164 
L 390.221422 136.209025 
L 394.600721 133.093926 
L 398.91672 130.017957 
L 403.169623 126.980994 
L 407.361643 123.981499 
L 411.496584 121.016791 
L 415.578903 118.083706 
L 419.612524 115.179432 
L 423.599725 112.302317 
L 427.540403 109.452419 
L 431.431986 106.631604 
L 435.270118 103.843078 
L 439.049999 101.090436 
L 442.767951 98.37651 
L 446.422681 95.70242 
L 450.01583 93.067115 
L 453.551743 90.4675 
L 457.036625 87.89901 
L 460.47738 85.356463 
L 463.880333 82.835011 
" style="fill:none;stroke:#00ff00;stroke-linecap:square;"/>
   </g>
   <g id="line2d_4">
    <path clip-path="url(#p148fde2026)" d="M 185.210413 326.614999 
L 185.210673 326.623078 
L 185.211817 326.639046 
L 185.216643 326.670177 
L 185.236674 326.728892 
L 185.324858 326.835077 
L 185.504073 326.926422 
L 185.743787 326.981012 
L 186.853221 326.975634 
L 188.171428 326.795778 
L 195.367884 325.075401 
L 201.662031 323.251457 
L 207.899825 321.331277 
L 215.416944 318.934675 
L 223.104431 316.425782 
L 230.806304 313.873378 
L 238.456946 311.310859 
L 246.030806 308.754365 
L 253.515912 306.212989 
L 260.905501 303.692493 
L 268.194992 301.196885 
L 275.380651 298.729211 
L 282.459759 296.291705 
L 289.430653 293.885918 
L 296.291493 291.51323 
L 303.0402 289.174931 
L 309.675958 286.871745 
L 316.198654 284.604051 
L 322.606523 282.372732 
L 328.896892 280.178938 
L 335.069889 278.02281 
L 341.128717 275.90339 
L 347.074977 273.82026 
L 352.905984 271.77449 
L 358.618922 269.76718 
L 364.216279 267.79755 
L 369.704174 265.863509 
L 375.084709 263.964365 
L 380.352001 262.102242 
L 385.498087 260.280021 
L 390.522928 258.497792 
L 395.436847 256.751972 
L 400.252181 255.038249 
L 404.97215 253.355553 
L 409.587693 251.707214 
L 414.086518 250.097742 
L 418.466358 248.52807 
L 422.739195 246.993986 
L 426.92297 245.48908 
L 431.028039 244.009615 
L 435.048024 242.557876 
L 438.962759 241.141174 
L 442.753492 239.766383 
L 446.418024 238.434425 
L 449.97286 237.139417 
L 453.443131 235.872281 
L 456.848711 234.625799 
L 460.192977 233.398773 
L 463.459747 232.19722 
L 466.623378 231.030731 
L 469.667209 229.905658 
L 470.83986 229.471472 
" style="fill:none;stroke:#00ff00;stroke-linecap:square;"/>
   </g>
   <g id="line2d_5">
    <path clip-path="url(#p148fde2026)" d="M 185.210413 326.602543 
L 185.210673 326.594252 
L 185.211817 326.577354 
L 185.216643 326.542302 
L 185.236674 326.467308 
L 185.324858 326.289459 
L 185.504073 326.052483 
L 185.743787 325.803125 
L 186.853221 324.907427 
L 188.171428 324.017366 
L 195.367884 319.910025 
L 201.662031 316.654136 
L 207.899825 313.554534 
L 215.416944 309.919663 
L 223.104431 306.279037 
L 230.806304 302.687909 
L 238.456946 299.163862 
L 246.030806 295.709616 
L 253.515912 292.32418 
L 260.905501 289.005849 
L 268.194992 285.753049 
L 275.380651 282.564598 
L 282.459759 279.439408 
L 289.430653 276.376333 
L 296.291493 273.374615 
L 303.0402 270.433836 
L 309.675958 267.553215 
L 316.198654 264.731823 
L 322.606523 261.969566 
L 328.896892 259.266827 
L 335.069889 256.622865 
L 341.128717 254.035694 
L 347.074977 251.504093 
L 352.905984 249.028722 
L 358.618922 246.610332 
L 364.216279 244.247458 
L 369.704174 241.93715 
L 375.084709 239.678192 
L 380.352001 237.472742 
L 385.498087 235.32382 
L 390.522928 233.231127 
L 395.436847 231.19008 
L 400.252181 229.195329 
L 404.97215 227.245368 
L 409.587693 225.343786 
L 414.086518 223.495471 
L 418.466358 221.701145 
L 422.739195 219.95569 
L 426.92297 218.251601 
L 431.028039 216.584541 
L 435.048024 214.957017 
L 438.962759 213.377096 
L 442.753492 211.852191 
L 446.418024 210.382982 
L 449.97286 208.962642 
L 453.443131 207.580972 
L 456.848711 206.229997 
L 460.192977 204.908412 
L 463.459747 203.622696 
L 466.623378 202.382987 
L 469.667209 201.195739 
L 470.83986 200.739888 
" style="fill:none;stroke:#00ff00;stroke-linecap:square;"/>
   </g>
   <g id="line2d_6">
    <path clip-path="url(#p148fde2026)" d="M 185.210413 304.141368 
L 185.210673 304.152132 
L 185.211817 304.173394 
L 185.216643 304.214796 
L 185.236674 304.292675 
L 185.324858 304.432532 
L 185.504073 304.550895 
L 185.743787 304.619157 
L 186.853221 304.591498 
L 188.171428 304.327933 
L 195.367884 301.910583 
L 201.662031 299.376065 
L 207.899825 296.717506 
L 215.416944 293.406871 
L 223.104431 289.946797 
L 230.806304 286.430798 
L 238.456946 282.903898 
L 246.030806 279.38761 
L 253.515912 275.893933 
L 260.905501 272.43042 
L 268.194992 269.002299 
L 275.380651 265.613538 
L 282.459759 262.267032 
L 289.430653 258.964763 
L 296.291493 255.708505 
L 303.0402 252.499932 
L 309.675958 249.339965 
L 316.198654 246.22907 
L 322.606523 243.168413 
L 328.896892 240.159531 
L 335.069889 237.202576 
L 341.128717 234.296192 
L 347.074977 231.439767 
L 352.905984 228.634727 
L 358.618922 225.882557 
L 364.216279 223.182166 
L 369.704174 220.530688 
L 375.084709 217.927169 
L 380.352001 215.374514 
L 385.498087 212.876659 
L 390.522928 210.433725 
L 395.436847 208.040801 
L 400.252181 205.691981 
L 404.97215 203.385782 
L 409.587693 201.126723 
L 414.086518 198.920936 
L 418.466358 196.769664 
L 422.739195 194.667135 
L 426.92297 192.604587 
L 431.028039 190.576927 
L 435.048024 188.587304 
L 438.962759 186.645744 
L 442.753492 184.761681 
L 446.418024 182.93641 
L 449.97286 181.161913 
L 453.443131 179.425787 
L 456.848711 177.718143 
L 460.192977 176.037287 
L 463.459747 174.391369 
L 466.623378 172.793411 
L 469.667209 171.252029 
L 470.83986 170.657126 
" style="fill:none;stroke:#00ff00;stroke-linecap:square;"/>
   </g>
   <g id="line2d_7">
    <path clip-path="url(#p148fde2026)" d="M 185.210413 304.124764 
L 185.210673 304.113708 
L 185.211817 304.091162 
L 185.216643 304.044346 
L 185.236674 303.943996 
L 185.324858 303.705218 
L 185.504073 303.385833 
L 185.743787 303.048726 
L 186.853221 301.832667 
L 188.171428 300.619607 
L 195.367884 294.996544 
L 201.662031 290.525993 
L 207.899825 286.265356 
L 215.416944 281.266093 
L 223.104431 276.257602 
L 230.806304 271.316964 
L 238.456946 266.468964 
L 246.030806 261.717647 
L 253.515912 257.061782 
L 260.905501 252.49906 
L 268.194992 248.027294 
L 275.380651 243.644807 
L 282.459759 239.350048 
L 289.430653 235.141382 
L 296.291493 231.017702 
L 303.0402 226.978359 
L 309.675958 223.022204 
L 316.198654 219.147894 
L 322.606523 215.355247 
L 328.896892 211.644756 
L 335.069889 208.015364 
L 341.128717 204.464301 
L 347.074977 200.989835 
L 352.905984 197.592809 
L 358.618922 194.2742 
L 364.216279 191.031968 
L 369.704174 187.862056 
L 375.084709 184.762798 
L 380.352001 181.737151 
L 385.498087 178.789243 
L 390.522928 175.918634 
L 395.436847 173.118994 
L 400.252181 170.382944 
L 404.97215 167.708403 
L 409.587693 165.100308 
L 414.086518 162.565384 
L 418.466358 160.104629 
L 422.739195 157.711012 
L 426.92297 155.374227 
L 431.028039 153.088295 
L 435.048024 150.85661 
L 438.962759 148.690194 
L 442.753492 146.599209 
L 446.418024 144.584616 
L 449.97286 142.637093 
L 453.443131 140.742669 
L 456.848711 138.890385 
L 460.192977 137.078419 
L 463.459747 135.315646 
L 466.623378 133.615979 
L 469.667209 131.988257 
L 470.83986 131.363275 
" style="fill:none;stroke:#00ff00;stroke-linecap:square;"/>
   </g>
   <g id="line2d_8">
    <path clip-path="url(#p148fde2026)" d="M 185.210413 279.935507 
L 185.210673 279.938194 
L 185.211817 279.943163 
L 185.216643 279.951441 
L 185.236674 279.961122 
L 185.324858 279.95041 
L 185.504073 279.885047 
L 185.743787 279.773924 
L 186.853221 279.169043 
L 188.171428 278.389325 
L 195.367884 273.873293 
L 201.662031 269.813681 
L 207.899825 265.754196 
L 215.416944 260.837992 
L 223.104431 255.795522 
L 230.806304 250.73528 
L 238.456946 245.70396 
L 246.030806 240.720366 
L 253.515912 235.793446 
L 260.905501 230.928178 
L 268.194992 226.127778 
L 275.380651 221.39471 
L 282.459759 216.730652 
L 289.430653 212.136524 
L 296.291493 207.613326 
L 303.0402 203.162204 
L 309.675958 198.783473 
L 316.198654 194.476995 
L 322.606523 190.243733 
L 328.896892 186.085262 
L 335.069889 182.001324 
L 341.128717 177.989636 
L 347.074977 174.049 
L 352.905984 170.181091 
L 358.618922 166.387705 
L 364.216279 162.667142 
L 369.704174 159.015284 
L 375.084709 155.430677 
L 380.352001 151.917185 
L 385.498087 148.48008 
L 390.522928 145.119381 
L 395.436847 141.828214 
L 400.252181 138.598377 
L 404.97215 135.427785 
L 409.587693 132.32261 
L 414.086518 129.291222 
L 418.466358 126.335263 
L 422.739195 123.446743 
L 426.92297 120.613562 
L 431.028039 117.828648 
L 435.048024 115.096238 
L 438.962759 112.430044 
L 442.753492 109.843027 
L 446.418024 107.337032 
L 449.97286 104.901124 
L 453.443131 102.51831 
L 456.848711 100.174993 
L 460.192977 97.868774 
L 463.459747 95.610753 
L 466.623378 93.418729 
L 469.667209 91.304467 
L 470.83986 90.48849 
" style="fill:none;stroke:#00ff00;stroke-linecap:square;"/>
   </g>
   <g id="line2d_9">
    <path clip-path="url(#p148fde2026)" d="M 185.210413 279.931146 
L 185.210673 279.928102 
L 185.211817 279.921565 
L 185.216643 279.906674 
L 185.236674 279.869549 
L 185.324858 279.75944 
L 185.504073 279.57927 
L 185.743787 279.361993 
L 186.853221 278.447277 
L 188.171428 277.422051 
L 195.367884 272.095487 
L 201.662031 267.560668 
L 207.899825 263.114067 
L 215.416944 257.792684 
L 223.104431 252.377892 
L 230.806304 246.971334 
L 238.456946 241.613028 
L 246.030806 236.31645 
L 253.515912 231.086654 
L 260.905501 225.925775 
L 268.194992 220.834929 
L 275.380651 215.81504 
L 282.459759 210.866638 
L 289.430653 205.989736 
L 296.291493 201.184616 
L 303.0402 196.451854 
L 309.675958 191.791302 
L 316.198654 187.202487 
L 322.606523 182.686208 
L 328.896892 178.243942 
L 335.069889 173.87519 
L 341.128717 169.577283 
L 347.074977 165.348798 
L 352.905984 161.191556 
L 358.618922 157.107568 
L 364.216279 153.095009 
L 369.704174 149.149377 
L 375.084709 145.268976 
L 380.352001 141.457815 
L 385.498087 137.72156 
L 390.522928 134.060457 
L 395.436847 130.467325 
L 400.252181 126.933281 
L 404.97215 123.455968 
L 409.587693 120.042252 
L 414.086518 116.70154 
L 418.466358 113.435535 
L 422.739195 110.23498 
L 426.92297 107.086297 
L 431.028039 103.982093 
L 435.048024 100.92782 
L 438.962759 97.939164 
L 442.753492 95.030663 
L 446.418024 92.204586 
L 449.97286 89.449005 
L 453.443131 86.744558 
L 456.848711 84.074663 
L 460.192977 81.43523 
L 463.459747 78.839047 
L 466.623378 76.308703 
L 469.667209 73.860392 
L 470.83986 72.913581 
" style="fill:none;stroke:#00ff00;stroke-linecap:square;"/>
   </g>
   <g id="line2d_10">
    <path clip-path="url(#p148fde2026)" d="M 112.649528 340.408357 
L 112.650493 340.452018 
L 112.657462 340.536241 
L 113.028763 341.114923 
L 114.202777 341.363549 
L 116.582511 341.039824 
L 119.04 340.376801 
L 121.798697 339.461313 
L 126.100993 337.843077 
L 132.02668 335.408237 
L 140.563268 331.68312 
L 152.813817 326.117762 
L 167.403766 319.334358 
L 183.85204 311.60032 
L 201.373567 303.322774 
L 219.46 294.767172 
L 237.829617 286.080346 
L 256.318646 277.345862 
L 274.822406 268.615133 
L 293.264387 259.923993 
L 311.587288 251.298029 
L 329.757142 242.751257 
L 347.723396 234.305274 
L 365.426298 225.986014 
L 382.87891 217.785394 
L 400.132224 209.677759 
L 417.137035 201.684707 
L 433.762497 193.866407 
L 449.99697 186.227282 
L 466.009341 178.686981 
" style="fill:none;stroke:#ff0000;stroke-linecap:square;"/>
   </g>
   <g id="line2d_11">
    <path clip-path="url(#p148fde2026)" d="M 112.649528 340.401833 
L 112.650493 340.357005 
L 112.657462 340.264363 
L 113.028763 339.237203 
L 114.202777 337.571909 
L 116.582511 335.030095 
L 119.04 332.741796 
L 121.798697 330.352918 
L 126.100993 326.834606 
L 132.02668 322.224913 
L 140.563268 315.856427 
L 152.813817 307.035927 
L 167.403766 296.817567 
L 183.85204 285.528961 
L 201.373567 273.683383 
L 219.46 261.593078 
L 237.829617 249.418564 
L 256.318646 237.246014 
L 274.822406 225.126654 
L 293.264387 213.09643 
L 311.587288 201.181223 
L 329.757142 189.39387 
L 347.723396 177.75976 
L 365.426298 166.311387 
L 382.87891 155.034986 
L 400.132224 143.893123 
L 417.137035 132.913527 
L 433.762497 122.176849 
L 449.99697 111.687653 
L 466.009341 101.335279 
" style="fill:none;stroke:#ff0000;stroke-linecap:square;"/>
   </g>
   <g id="line2d_12">
    <path clip-path="url(#p148fde2026)" d="M 59.708952 382.094821 
L 59.724358 382.234417 
L 59.745708 382.395422 
L 59.772561 382.560811 
L 59.804186 382.718852 
L 59.841602 382.869773 
L 59.90037 383.052321 
L 59.976408 383.221922 
L 60.069689 383.362362 
L 60.297683 383.5214 
L 60.458883 383.539861 
L 60.812559 383.433175 
L 61.251356 383.147976 
L 61.775629 382.698278 
L 63.30711 381.139345 
L 65.046778 379.271835 
L 68.895582 375.283939 
L 77.803075 367.07317 
L 98.56 350.639554 
L 121.610561 334.103897 
L 148.213604 316.004449 
L 178.14164 296.339479 
L 210.676819 275.480297 
L 245.248492 253.712335 
L 281.385469 231.268712 
L 318.704177 208.337112 
L 356.893296 185.068346 
L 395.700181 161.583644 
L 434.91959 137.980569 
L 474.384571 114.337727 
" style="fill:none;stroke:#ff0000;stroke-linecap:square;"/>
   </g>
   <g id="line2d_13">
    <path clip-path="url(#p148fde2026)" d="M 137.179556 333.476418 
L 137.21528 333.6393 
L 137.437396 333.926954 
L 138.005334 334.129853 
L 138.985132 334.14214 
L 143.805989 333.010386 
L 146.863243 331.982209 
L 153.142959 329.604406 
L 160.063768 326.778098 
L 168.974225 322.984453 
L 179.451056 318.410063 
L 191.033321 313.281073 
L 203.250374 307.831281 
L 215.807454 302.211241 
L 228.542719 296.50563 
L 241.362067 290.763946 
L 254.205067 285.017482 
L 267.028804 279.287736 
L 279.796538 273.592227 
L 292.479483 267.944139 
L 305.060846 262.350817 
L 317.520497 256.82079 
L 329.823584 251.368915 
L 341.944286 246.005905 
L 353.892309 240.726733 
L 365.692481 235.519776 
L 377.335466 230.388579 
L 388.765353 225.357214 
L 399.933974 220.446258 
L 410.860128 215.646795 
L 421.620945 210.924349 
L 432.287342 206.247287 
L 442.85211 201.618302 
L 453.202419 197.086325 
L 463.190219 192.715607 
L 472.752253 188.533251 
" style="fill:none;stroke:#ff0000;stroke-linecap:square;"/>
   </g>
   <g id="line2d_14">
    <path clip-path="url(#p148fde2026)" d="M 137.179556 333.31592 
L 137.21528 333.111716 
L 137.437396 332.567179 
L 138.005334 331.707792 
L 138.985132 330.564098 
L 143.805989 326.149599 
L 146.863243 323.677338 
L 153.142959 318.903055 
L 160.063768 313.901453 
L 168.974225 307.691929 
L 179.451056 300.600466 
L 191.033321 292.93809 
L 203.250374 285.000043 
L 215.807454 276.95753 
L 228.542719 268.896002 
L 241.362067 260.860262 
L 254.205067 252.876454 
L 267.028804 244.961861 
L 279.796538 237.131503 
L 292.479483 229.39669 
L 305.060846 221.76239 
L 317.520497 214.236394 
L 329.823584 206.835908 
L 341.944286 199.573012 
L 353.892309 192.438872 
L 365.692481 185.416139 
L 377.335466 178.508211 
L 388.765353 171.74621 
L 399.933974 165.156586 
L 410.860128 158.72637 
L 421.620945 152.40871 
L 432.287342 146.160996 
L 442.85211 139.986793 
L 453.202419 133.951335 
L 463.190219 128.139877 
L 472.752253 122.587741 
" style="fill:none;stroke:#ff0000;stroke-linecap:square;"/>
   </g>
   <g id="line2d_15">
    <path clip-path="url(#p148fde2026)" d="M 137.179556 318.661982 
L 137.21528 318.721832 
L 137.437396 318.762534 
L 138.005334 318.622075 
L 138.985132 318.222908 
L 143.805989 315.689883 
L 146.863243 313.929848 
L 153.142959 310.178983 
L 160.063768 305.941069 
L 168.974225 300.411678 
L 179.451056 293.865805 
L 191.033321 286.613302 
L 203.250374 278.967896 
L 215.807454 271.126215 
L 228.542719 263.195622 
L 241.362067 255.237274 
L 254.205067 247.289101 
L 267.028804 239.376891 
L 279.796538 231.521902 
L 292.479483 223.740114 
L 305.060846 216.040005 
L 317.520497 208.432092 
L 329.823584 200.935882 
L 341.944286 193.565362 
L 353.892309 186.312992 
L 365.692481 179.162234 
L 377.335466 172.1174 
L 388.765353 165.210985 
L 399.933974 158.470764 
L 410.860128 151.884206 
L 421.620945 145.403903 
L 432.287342 138.986514 
L 442.85211 132.635879 
L 453.202419 126.419258 
L 463.190219 120.424853 
L 472.752253 114.689851 
" style="fill:none;stroke:#ff0000;stroke-linecap:square;"/>
   </g>
   <g id="line2d_16">
    <path clip-path="url(#p148fde2026)" d="M 137.179556 318.588703 
L 137.21528 318.481015 
L 137.437396 318.142885 
L 138.005334 317.522962 
L 138.985132 316.610753 
L 143.805989 312.699692 
L 146.863243 310.380542 
L 153.142959 305.771827 
L 160.063768 300.827528 
L 168.974225 294.582496 
L 179.451056 287.350274 
L 191.033321 279.448669 
L 203.250374 271.189902 
L 215.807454 262.76171 
L 228.542719 254.261976 
L 241.362067 245.7444 
L 254.205067 237.241598 
L 267.028804 228.775727 
L 279.796538 220.365741 
L 292.479483 212.026001 
L 305.060846 203.763528 
L 317.520497 195.58812 
L 329.823584 187.519818 
L 341.944286 179.57316 
L 353.892309 171.739621 
L 365.692481 164.001005 
L 377.335466 156.361804 
L 388.765353 148.857181 
L 399.933974 141.517151 
L 410.860128 134.327889 
L 421.620945 127.237764 
L 432.287342 120.199832 
L 442.85211 113.218811 
L 453.202419 106.368851 
L 463.190219 99.747367 
L 472.752253 93.396459 
" style="fill:none;stroke:#ff0000;stroke-linecap:square;"/>
   </g>
   <g id="line2d_17">
    <path clip-path="url(#p148fde2026)" d="M 144.935216 332.76481 
L 144.945923 332.803753 
L 145.044544 332.872982 
L 145.254423 332.893394 
L 146.242052 332.716594 
L 148.812294 331.893182 
L 156.789357 328.736911 
L 165.704478 324.926917 
L 172.331895 322.024653 
L 178.992207 319.0775 
L 188.251574 314.951722 
L 197.705473 310.721057 
L 207.298282 306.419807 
L 216.982619 302.075071 
L 226.72763 297.704388 
L 236.509825 293.320632 
L 246.310161 288.933784 
L 256.112629 284.551872 
L 265.903661 280.181424 
L 275.672029 275.827648 
L 285.408521 271.494662 
L 295.104894 267.186026 
L 304.752572 262.905353 
L 314.342243 258.656518 
L 323.865008 254.443155 
L 333.314378 250.267789 
L 342.687401 246.131366 
L 351.983654 242.033719 
L 361.202385 237.974853 
L 370.33951 233.956274 
L 379.386638 229.981408 
L 388.333316 226.054588 
L 397.171656 222.179007 
L 405.900719 218.354793 
L 414.527942 214.578401 
L 423.066657 210.843725 
L 431.530612 207.144512 
L 439.927345 203.477263 
L 448.252586 199.843658 
L 456.488158 196.251441 
L 464.605489 192.712854 
L 472.574499 189.24075 
" style="fill:none;stroke:#ff0000;stroke-linecap:square;"/>
   </g>
   <g id="line2d_18">
    <path clip-path="url(#p148fde2026)" d="M 144.935216 332.744922 
L 144.945923 332.695958 
L 145.044544 332.53444 
L 145.254423 332.317698 
L 146.242052 331.571919 
L 148.812294 330.002676 
L 156.789357 325.77598 
L 165.704478 321.359857 
L 172.331895 318.148133 
L 178.992207 314.949477 
L 188.251574 310.529875 
L 197.705473 306.037276 
L 207.298282 301.492288 
L 216.982619 296.914471 
L 226.72763 292.316834 
L 236.509825 287.709493 
L 246.310161 283.100729 
L 256.112629 278.497513 
L 265.903661 273.905717 
L 275.672029 269.330138 
L 285.408521 264.774639 
L 295.104894 260.242639 
L 304.752572 255.737717 
L 314.342243 251.263805 
L 323.865008 246.824649 
L 333.314378 242.422888 
L 342.687401 238.059535 
L 351.983654 233.734452 
L 361.202385 229.447683 
L 370.33951 225.200851 
L 379.386638 220.997607 
L 388.333316 216.842589 
L 397.171656 212.739272 
L 405.900719 208.687931 
L 414.527942 204.684979 
L 423.066657 200.724116 
L 431.530612 196.798866 
L 439.927345 192.905642 
L 448.252586 189.046339 
L 456.488158 185.229293 
L 464.605489 181.467657 
L 472.574499 177.775267 
" style="fill:none;stroke:#ff0000;stroke-linecap:square;"/>
   </g>
   <g id="line2d_19">
    <path clip-path="url(#p148fde2026)" d="M 144.935216 325.363299 
L 144.945923 325.443928 
L 145.044544 325.616971 
L 145.254423 325.736476 
L 146.242052 325.771175 
L 148.812294 325.178822 
L 156.789357 322.256824 
L 165.704478 318.484938 
L 172.331895 315.55042 
L 178.992207 312.540665 
L 188.251574 308.293997 
L 197.705473 303.911165 
L 207.298282 299.433617 
L 216.982619 294.893286 
L 226.72763 290.310987 
L 236.509825 285.701937 
L 246.310161 281.077865 
L 256.112629 276.448137 
L 265.903661 271.820335 
L 275.672029 267.200491 
L 285.408521 262.593379 
L 295.104894 258.003095 
L 304.752572 253.433738 
L 314.342243 248.889647 
L 323.865008 244.374895 
L 333.314378 239.892367 
L 342.687401 235.443246 
L 351.983654 231.027494 
L 361.202385 226.645217 
L 370.33951 222.298087 
L 379.386638 217.989821 
L 388.333316 213.725131 
L 397.171656 209.507531 
L 405.900719 205.337269 
L 414.527942 201.210629 
L 423.066657 197.1211 
L 431.530612 193.061958 
L 439.927345 189.02941 
L 448.252586 185.025267 
L 456.488158 181.057962 
L 464.605489 177.140925 
L 472.574499 173.288384 
" style="fill:none;stroke:#ff0000;stroke-linecap:square;"/>
   </g>
   <g id="line2d_20">
    <path clip-path="url(#p148fde2026)" d="M 144.935216 325.324134 
L 144.945923 325.231603 
L 145.044544 324.948928 
L 145.254423 324.596078 
L 146.242052 323.462763 
L 148.812294 321.192092 
L 156.789357 315.203514 
L 165.704478 309.00089 
L 172.331895 304.524967 
L 178.992207 300.098298 
L 188.251574 294.03045 
L 197.705473 287.914154 
L 207.298282 281.772492 
L 216.982619 275.626581 
L 226.72763 269.488941 
L 236.509825 263.368766 
L 246.310161 257.273387 
L 256.112629 251.208932 
L 265.903661 245.180538 
L 275.672029 239.192318 
L 285.408521 233.247485 
L 295.104894 227.348939 
L 304.752572 221.500009 
L 314.342243 215.704648 
L 323.865008 209.966699 
L 333.314378 204.288683 
L 342.687401 198.671121 
L 351.983654 193.113146 
L 361.202385 187.61421 
L 370.33951 182.175847 
L 379.386638 176.802211 
L 388.333316 171.498715 
L 397.171656 166.26927 
L 405.900719 161.113716 
L 414.527942 156.027014 
L 423.066657 151.000747 
L 431.530612 146.026355 
L 439.927345 141.099017 
L 448.252586 136.220885 
L 456.488158 131.402243 
L 464.605489 126.659386 
L 472.574499 122.009395 
" style="fill:none;stroke:#ff0000;stroke-linecap:square;"/>
   </g>
   <g id="line2d_21">
    <path clip-path="url(#p148fde2026)" d="M 144.935216 315.199823 
L 144.945923 315.232065 
L 145.044544 315.268583 
L 145.254423 315.232382 
L 146.242052 314.819407 
L 148.812294 313.429875 
L 156.789357 308.634404 
L 165.704478 303.082468 
L 172.331895 298.92121 
L 178.992207 294.731166 
L 188.251574 288.906514 
L 197.705473 282.968882 
L 207.298282 276.958386 
L 216.982619 270.907222 
L 226.72763 264.835668 
L 236.509825 258.758498 
L 246.310161 252.687174 
L 256.112629 246.630955 
L 265.903661 240.597401 
L 275.672029 234.592529 
L 285.408521 228.621077 
L 295.104894 222.687177 
L 304.752572 216.795177 
L 314.342243 210.949888 
L 323.865008 205.155883 
L 333.314378 199.416293 
L 342.687401 193.732134 
L 351.983654 188.10293 
L 361.202385 182.528456 
L 370.33951 177.010542 
L 379.386638 171.553653 
L 388.333316 166.163517 
L 397.171656 160.844341 
L 405.900719 155.596183 
L 414.527942 150.414108 
L 423.066657 145.2897 
L 431.530612 140.214357 
L 439.927345 135.183253 
L 448.252586 130.198678 
L 456.488158 125.271264 
L 464.605489 120.417851 
L 472.574499 115.656162 
" style="fill:none;stroke:#ff0000;stroke-linecap:square;"/>
   </g>
   <g id="line2d_22">
    <path clip-path="url(#p148fde2026)" d="M 144.935216 315.18192 
L 144.945923 315.135018 
L 145.044544 314.963482 
L 145.254423 314.712423 
L 146.242052 313.77506 
L 148.812294 311.66103 
L 156.789357 305.669711 
L 165.704478 299.294637 
L 172.331895 294.660189 
L 178.992207 290.061957 
L 188.251574 283.742228 
L 197.705473 277.356415 
L 207.298282 270.930383 
L 216.982619 264.487232 
L 226.72763 258.040807 
L 236.509825 251.601338 
L 246.310161 245.177038 
L 256.112629 238.774802 
L 265.903661 232.400447 
L 275.672029 226.058681 
L 285.408521 219.753245 
L 295.104894 213.487548 
L 304.752572 207.265458 
L 314.342243 201.091517 
L 323.865008 194.970158 
L 333.314378 188.904393 
L 342.687401 182.895081 
L 351.983654 176.941557 
L 361.202385 171.043459 
L 370.33951 165.20262 
L 379.386638 159.423684 
L 388.333316 153.712665 
L 397.171656 148.074011 
L 405.900719 142.507829 
L 414.527942 137.008978 
L 423.066657 131.568649 
L 431.530612 126.177821 
L 439.927345 120.831458 
L 448.252586 115.53206 
L 456.488158 110.291005 
L 464.605489 105.126339 
L 472.574499 100.057157 
" style="fill:none;stroke:#ff0000;stroke-linecap:square;"/>
   </g>
   <g id="line2d_23">
    <path clip-path="url(#p148fde2026)" d="M 144.935216 311.988664 
L 144.945923 311.999439 
L 145.044544 311.978151 
L 145.254423 311.879917 
L 146.242052 311.303283 
L 148.812294 309.649493 
L 156.789357 304.280168 
L 165.704478 298.212917 
L 172.331895 293.711332 
L 178.992207 289.20434 
L 188.251574 282.969614 
L 197.705473 276.639802 
L 207.298282 270.250622 
L 216.982619 263.830947 
L 226.72763 257.398215 
L 236.509825 250.964968 
L 246.310161 244.540955 
L 256.112629 238.134132 
L 265.903661 231.751071 
L 275.672029 225.397026 
L 285.408521 219.076135 
L 295.104894 212.792069 
L 304.752572 206.548863 
L 314.342243 200.351143 
L 323.865008 194.203371 
L 333.314378 188.108563 
L 342.687401 182.067571 
L 351.983654 176.079745 
L 361.202385 170.144769 
L 370.33951 164.264553 
L 379.386638 158.443826 
L 388.333316 152.688671 
L 397.171656 147.003553 
L 405.900719 141.388531 
L 414.527942 135.83836 
L 423.066657 130.344084 
L 431.530612 124.896514 
L 439.927345 119.490436 
L 448.252586 114.128172 
L 456.488158 108.820936 
L 464.605489 103.586634 
L 472.574499 98.444245 
" style="fill:none;stroke:#ff0000;stroke-linecap:square;"/>
   </g>
   <g id="line2d_24">
    <path clip-path="url(#p148fde2026)" d="M 144.935216 311.980385 
L 144.945923 311.954571 
L 145.044544 311.837335 
L 145.254423 311.640806 
L 146.242052 310.831049 
L 148.812294 308.882596 
L 156.789357 303.133363 
L 165.704478 296.888889 
L 172.331895 292.310044 
L 178.992207 287.745974 
L 188.251574 281.448649 
L 197.705473 275.063997 
L 207.298282 268.622431 
L 216.982619 262.150124 
L 226.72763 255.663063 
L 236.509825 249.173007 
L 246.310161 242.689287 
L 256.112629 236.219627 
L 265.903661 229.770468 
L 275.672029 223.34697 
L 285.408521 216.953195 
L 295.104894 210.592765 
L 304.752572 204.269706 
L 314.342243 197.988694 
L 323.865008 191.754277 
L 333.314378 185.569545 
L 342.687401 179.435366 
L 351.983654 173.351029 
L 361.202385 167.316123 
L 370.33951 161.332513 
L 379.386638 155.404973 
L 388.333316 149.539689 
L 397.171656 143.741173 
L 405.900719 138.009361 
L 414.527942 132.338678 
L 423.066657 126.719712 
L 431.530612 121.142888 
L 439.927345 115.602894 
L 448.252586 110.102398 
L 456.488158 104.653398 
L 464.605489 99.27483 
L 472.574499 93.986621 
" style="fill:none;stroke:#ff0000;stroke-linecap:square;"/>
   </g>
   <g id="line2d_25">
    <path clip-path="url(#p148fde2026)" d="M 146.716121 332.642174 
L 146.717394 332.646837 
L 146.724802 332.65417 
L 146.782681 332.660701 
L 146.958747 332.631581 
L 147.194812 332.570457 
L 147.739014 332.400923 
L 148.490517 332.140242 
L 150.051165 331.557316 
L 151.790146 330.87472 
L 155.261358 329.458291 
L 159.862835 327.518599 
L 165.736536 324.984949 
L 172.625197 321.966157 
L 180.244761 318.592806 
L 188.329957 314.990877 
L 196.697996 311.24958 
L 205.240116 307.423492 
L 213.893013 303.545184 
L 222.617589 299.635078 
L 231.387322 295.707013 
L 240.182611 291.771066 
L 248.98823 287.834883 
L 257.791909 283.904463 
L 266.583042 279.984826 
L 275.351766 276.080494 
L 284.0891 272.195468 
L 292.787772 268.332895 
L 301.442337 264.495043 
L 310.047696 260.683972 
L 318.597007 256.902475 
L 327.081187 253.154307 
L 335.491196 249.443181 
L 343.821834 245.771109 
L 352.073974 242.137435 
L 360.253066 238.539516 
L 368.3643 234.974854 
L 376.407144 231.443497 
L 384.372661 227.949199 
L 392.246037 224.49829 
L 400.013669 221.096558 
L 407.670722 217.745939 
L 415.224541 214.443038 
L 422.692232 211.180196 
L 430.093953 207.948435 
L 437.444404 204.741171 
L 444.744791 201.557708 
L 451.97807 198.405288 
L 459.110979 195.298198 
L 466.104474 192.253215 
" style="fill:none;stroke:#ff0000;stroke-linecap:square;"/>
   </g>
   <g id="line2d_26">
    <path clip-path="url(#p148fde2026)" d="M 146.716121 332.63934 
L 146.717394 332.633674 
L 146.724802 332.620504 
L 146.782681 332.56838 
L 146.958747 332.458881 
L 147.194812 332.334278 
L 147.739014 332.075882 
L 148.490517 331.745128 
L 150.051165 331.09325 
L 151.790146 330.384293 
L 155.261358 328.969226 
L 159.862835 327.061683 
L 165.736536 324.574124 
L 172.625197 321.602035 
L 180.244761 318.269585 
L 188.329957 314.701084 
L 196.697996 310.986349 
L 205.240116 307.181199 
L 213.893013 303.3194 
L 222.617589 299.422342 
L 231.387322 295.504611 
L 240.182611 291.576843 
L 248.98823 287.647109 
L 257.791909 283.721725 
L 266.583042 279.80595 
L 275.351766 275.904484 
L 284.0891 272.021469 
L 292.787772 268.160163 
L 301.442337 264.322927 
L 310.047696 260.511907 
L 318.597007 256.729976 
L 327.081187 252.980958 
L 335.491196 249.268629 
L 343.821834 245.595048 
L 352.073974 241.959596 
L 360.253066 238.359654 
L 368.3643 234.792738 
L 376.407144 231.2589 
L 384.372661 227.761888 
L 392.246037 224.308016 
L 400.013669 220.903042 
L 407.670722 217.548864 
L 415.224541 214.242047 
L 422.692232 210.974902 
L 430.093953 207.738438 
L 437.444404 204.52609 
L 444.744791 201.337214 
L 451.97807 198.179145 
L 459.110979 195.066286 
L 466.104474 192.01553 
" style="fill:none;stroke:#ff0000;stroke-linecap:square;"/>
   </g>
   <g id="line2d_27">
    <path clip-path="url(#p148fde2026)" d="M 146.716121 331.320094 
L 146.717394 331.332705 
L 146.724802 331.355724 
L 146.782681 331.406786 
L 146.958747 331.439324 
L 147.194812 331.42912 
L 147.739014 331.338488 
L 148.490517 331.15339 
L 150.051165 330.678848 
L 151.790146 330.081137 
L 155.261358 328.782037 
L 159.862835 326.945723 
L 165.736536 324.501407 
L 172.625197 321.55456 
L 180.244761 318.236975 
L 188.329957 314.677489 
L 196.697996 310.96845 
L 205.240116 307.167056 
L 213.893013 303.307834 
L 222.617589 299.412605 
L 231.387322 295.496206 
L 240.182611 291.569429 
L 248.98823 287.640445 
L 257.791909 283.715638 
L 266.583042 279.800316 
L 275.351766 275.899211 
L 284.0891 272.016492 
L 292.787772 268.155432 
L 301.442337 264.318403 
L 310.047696 260.507552 
L 318.597007 256.72575 
L 327.081187 252.976823 
L 335.491196 249.264542 
L 343.821834 245.59097 
L 352.073974 241.955489 
L 360.253066 238.355481 
L 368.3643 234.788463 
L 376.407144 231.254494 
L 384.372661 227.757334 
L 392.246037 224.303313 
L 400.013669 220.898214 
L 407.670722 217.543961 
L 415.224541 214.237133 
L 422.692232 210.970049 
L 430.093953 207.733711 
L 437.444404 204.521531 
L 444.744791 201.332833 
L 451.97807 198.174915 
L 459.110979 195.062144 
L 466.104474 192.011389 
" style="fill:none;stroke:#ff0000;stroke-linecap:square;"/>
   </g>
   <g id="line2d_28">
    <path clip-path="url(#p148fde2026)" d="M 146.716121 331.312881 
L 146.717394 331.299204 
L 146.724802 331.269986 
L 146.782681 331.170472 
L 146.958747 330.99037 
L 147.194812 330.802306 
L 147.739014 330.434043 
L 148.490517 329.98133 
L 150.051165 329.117378 
L 151.790146 328.205085 
L 155.261358 326.448099 
L 159.862835 324.178069 
L 165.736536 321.326755 
L 172.625197 318.017022 
L 180.244761 314.379695 
L 188.329957 310.53609 
L 196.697996 306.56942 
L 205.240116 302.529042 
L 213.893013 298.443642 
L 222.617589 294.330934 
L 231.387322 290.202929 
L 240.182611 286.068478 
L 248.98823 281.934412 
L 257.791909 277.806183 
L 266.583042 273.688464 
L 275.351766 269.585575 
L 284.0891 265.501422 
L 292.787772 261.439107 
L 301.442337 257.400877 
L 310.047696 253.388818 
L 318.597007 249.405821 
L 327.081187 245.455824 
L 335.491196 241.542743 
L 343.821834 237.668719 
L 352.073974 233.833091 
L 360.253066 230.033105 
L 368.3643 226.266156 
L 376.407144 222.532332 
L 384.372661 218.835637 
L 392.246037 215.182814 
L 400.013669 211.580053 
L 407.670722 208.029486 
L 415.224541 204.527617 
L 422.692232 201.066443 
L 430.093953 197.636564 
L 437.444404 194.231121 
L 444.744791 190.849498 
L 451.97807 187.499513 
L 459.110979 184.19646 
L 466.104474 180.958283 
" style="fill:none;stroke:#ff0000;stroke-linecap:square;"/>
   </g>
   <g id="line2d_29">
    <path clip-path="url(#p148fde2026)" d="M 146.716121 325.769639 
L 146.717394 325.79462 
L 146.724802 325.841215 
L 146.782681 325.952935 
L 146.958747 326.053348 
L 147.194812 326.084612 
L 147.739014 326.032305 
L 148.490517 325.855843 
L 150.051165 325.351315 
L 151.790146 324.700965 
L 155.261358 323.295156 
L 159.862835 321.333789 
L 165.736536 318.749214 
L 172.625197 315.650776 
L 180.244761 312.170869 
L 188.329957 308.439142 
L 196.697996 304.548715 
L 205.240116 300.557391 
L 213.893013 296.500189 
L 222.617589 292.399373 
L 231.387322 288.27021 
L 240.182611 284.123899 
L 248.98823 279.968992 
L 257.791909 275.812218 
L 266.583042 271.659206 
L 275.351766 267.515007 
L 284.0891 263.384091 
L 292.787772 259.269995 
L 301.442337 255.175304 
L 310.047696 251.102371 
L 318.597007 247.054325 
L 327.081187 243.035328 
L 335.491196 239.049504 
L 343.821834 235.09916 
L 352.073974 231.18372 
L 360.253066 227.300434 
L 368.3643 223.44666 
L 376.407144 219.62246 
L 384.372661 215.831887 
L 392.246037 212.081813 
L 400.013669 208.378579 
L 407.670722 204.724402 
L 415.224541 201.115735 
L 422.692232 197.54438 
L 430.093953 194.000645 
L 437.444404 190.477386 
L 444.744791 186.973832 
L 451.97807 183.497901 
L 459.110979 180.065297 
L 466.104474 176.6946 
" style="fill:none;stroke:#ff0000;stroke-linecap:square;"/>
   </g>
   <g id="line2d_30">
    <path clip-path="url(#p148fde2026)" d="M 146.716121 325.755493 
L 146.717394 325.728916 
L 146.724802 325.673033 
L 146.782681 325.488767 
L 146.958747 325.167955 
L 147.194812 324.841847 
L 147.739014 324.217341 
L 148.490517 323.465679 
L 150.051165 322.064843 
L 151.790146 320.621398 
L 155.261358 317.913522 
L 159.862835 314.507649 
L 165.736536 310.325773 
L 172.625197 305.565191 
L 180.244761 300.419465 
L 188.329957 295.057473 
L 196.697996 289.588248 
L 205.240116 284.071777 
L 213.893013 278.539753 
L 222.617589 273.009784 
L 231.387322 267.492728 
L 240.182611 261.996066 
L 248.98823 256.525304 
L 257.791909 251.084704 
L 266.583042 245.67797 
L 275.351766 240.308716 
L 284.0891 234.980312 
L 292.787772 229.695321 
L 301.442337 224.455404 
L 310.047696 219.262185 
L 318.597007 214.118478 
L 327.081187 209.028547 
L 335.491196 203.996706 
L 343.821834 199.02505 
L 352.073974 194.112132 
L 360.253066 189.253894 
L 368.3643 184.446534 
L 376.407144 179.689731 
L 384.372661 174.988177 
L 392.246037 170.350043 
L 400.013669 165.782775 
L 407.670722 161.288665 
L 415.224541 156.862889 
L 422.692232 152.494967 
L 430.093953 148.172715 
L 437.444404 143.887213 
L 444.744791 139.637458 
L 451.97807 135.433089 
L 459.110979 131.293143 
L 466.104474 127.23996 
" style="fill:none;stroke:#ff0000;stroke-linecap:square;"/>
   </g>
   <g id="line2d_31">
    <path clip-path="url(#p148fde2026)" d="M 146.716121 323.072281 
L 146.717394 323.082136 
L 146.724802 323.098182 
L 146.782681 323.117709 
L 146.958747 323.075038 
L 147.194812 322.971718 
L 147.739014 322.673385 
L 148.490517 322.205864 
L 150.051165 321.154812 
L 151.790146 319.934993 
L 155.261358 317.466823 
L 159.862835 314.214415 
L 165.736536 310.130228 
L 172.625197 305.429587 
L 180.244761 300.320903 
L 188.329957 294.982388 
L 196.697996 289.52859 
L 205.240116 284.022644 
L 213.893013 278.498053 
L 222.617589 272.973487 
L 231.387322 267.460451 
L 240.182611 261.966836 
L 248.98823 256.498417 
L 257.791909 251.05964 
L 266.583042 245.654335 
L 275.351766 240.286207 
L 284.0891 234.958687 
L 292.787772 229.674383 
L 301.442337 224.434983 
L 310.047696 219.242135 
L 318.597007 214.09867 
L 327.081187 209.00887 
L 335.491196 203.977068 
L 343.821834 199.005375 
L 352.073974 194.092361 
L 360.253066 189.233977 
L 368.3643 184.426429 
L 376.407144 179.669399 
L 384.372661 174.967581 
L 392.246037 170.329146 
L 400.013669 165.761535 
L 407.670722 161.267025 
L 415.224541 156.840768 
L 422.692232 152.472258 
L 430.093953 148.149284 
L 437.444404 143.862923 
L 444.744791 139.612196 
L 451.97807 135.406794 
L 459.110979 131.265831 
L 466.104474 127.211718 
" style="fill:none;stroke:#ff0000;stroke-linecap:square;"/>
   </g>
   <g id="line2d_32">
    <path clip-path="url(#p148fde2026)" d="M 146.716121 323.066369 
L 146.717394 323.054678 
L 146.724802 323.027946 
L 146.782681 322.924894 
L 146.958747 322.713147 
L 147.194812 322.474617 
L 147.739014 321.982375 
L 148.490517 321.354565 
L 150.051165 320.128323 
L 151.790146 318.820422 
L 155.261358 316.300356 
L 159.862835 313.062923 
L 165.736536 309.030998 
L 172.625197 304.395332 
L 180.244761 299.349398 
L 188.329957 294.065049 
L 196.697996 288.655511 
L 205.240116 283.184688 
L 213.893013 277.687403 
L 222.617589 272.183619 
L 231.387322 266.685943 
L 240.182611 261.203159 
L 248.98823 255.741752 
L 257.791909 250.306726 
L 266.583042 244.902351 
L 275.351766 239.53268 
L 284.0891 234.201427 
L 292.787772 228.911441 
L 301.442337 223.664615 
L 310.047696 218.462773 
L 318.597007 213.308901 
L 327.081187 208.207412 
L 335.491196 203.162742 
L 343.821834 198.177078 
L 352.073974 193.249035 
L 360.253066 188.374585 
L 368.3643 183.549945 
L 376.407144 178.77482 
L 384.372661 174.053947 
L 392.246037 169.395562 
L 400.013669 164.807175 
L 407.670722 160.291117 
L 415.224541 155.842568 
L 422.692232 151.451022 
L 430.093953 147.10427 
L 437.444404 142.793407 
L 444.744791 138.517504 
L 451.97807 134.286336 
L 459.110979 130.119107 
L 466.104474 126.038285 
" style="fill:none;stroke:#ff0000;stroke-linecap:square;"/>
   </g>
   <g id="line2d_33">
    <path clip-path="url(#p148fde2026)" d="M 146.716121 314.654851 
L 146.717394 314.659065 
L 146.724802 314.664435 
L 146.782681 314.657312 
L 146.958747 314.588423 
L 147.194812 314.474959 
L 147.739014 314.186537 
L 148.490517 313.764044 
L 150.051165 312.850753 
L 151.790146 311.8066 
L 155.261358 309.683546 
L 159.862835 306.829936 
L 165.736536 303.157058 
L 172.625197 298.831111 
L 180.244761 294.039489 
L 188.329957 288.957309 
L 196.697996 283.705412 
L 205.240116 278.355729 
L 213.893013 272.949933 
L 222.617589 267.513418 
L 231.387322 262.063009 
L 240.182611 256.610774 
L 248.98823 251.165778 
L 257.791909 245.735078 
L 266.583042 240.324594 
L 275.351766 234.939716 
L 284.0891 229.585259 
L 292.787772 224.264973 
L 301.442337 218.981504 
L 310.047696 213.73731 
L 318.597007 208.535938 
L 327.081187 203.382315 
L 335.491196 198.281349 
L 343.821834 193.235627 
L 352.073974 188.244074 
L 360.253066 183.302889 
L 368.3643 178.408458 
L 376.407144 173.560655 
L 384.372661 168.764432 
L 392.246037 164.028277 
L 400.013669 159.359955 
L 407.670722 154.76198 
L 415.224541 150.229596 
L 422.692232 145.752254 
L 430.093953 141.317631 
L 437.444404 136.916733 
L 444.744791 132.548671 
L 451.97807 128.223482 
L 459.110979 123.960885 
L 466.104474 119.784028 
" style="fill:none;stroke:#ff0000;stroke-linecap:square;"/>
   </g>
   <g id="line2d_34">
    <path clip-path="url(#p148fde2026)" d="M 146.716121 314.652109 
L 146.717394 314.646331 
L 146.724802 314.631863 
L 146.782681 314.567919 
L 146.958747 314.420787 
L 147.194812 314.244957 
L 147.739014 313.86765 
L 148.490517 313.372571 
L 150.051165 312.382092 
L 151.790146 311.301721 
L 155.261358 309.1634 
L 159.862835 306.327066 
L 165.736536 302.689473 
L 172.625197 298.404108 
L 180.244761 293.65078 
L 188.329957 288.601537 
L 196.697996 283.376797 
L 205.240116 278.049113 
L 213.893013 272.661019 
L 222.617589 267.238702 
L 231.387322 261.799647 
L 240.182611 256.356438 
L 248.98823 250.918546 
L 257.791909 245.493346 
L 266.583042 240.087008 
L 275.351766 234.70513 
L 284.0891 229.352695 
L 292.787772 224.033595 
L 301.442337 218.750586 
L 310.047696 213.506208 
L 318.597007 208.30406 
L 327.081187 203.149106 
L 335.491196 198.046274 
L 343.821834 192.998175 
L 352.073974 188.003758 
L 360.253066 183.059251 
L 368.3643 178.161081 
L 376.407144 173.309169 
L 384.372661 168.508528 
L 392.246037 163.767708 
L 400.013669 159.094532 
L 407.670722 154.491551 
L 415.224541 149.954027 
L 422.692232 145.471403 
L 430.093953 141.03134 
L 437.444404 136.624819 
L 444.744791 132.250924 
L 451.97807 127.919667 
L 459.110979 123.650731 
L 466.104474 119.46722 
" style="fill:none;stroke:#ff0000;stroke-linecap:square;"/>
   </g>
   <g id="line2d_35">
    <path clip-path="url(#p148fde2026)" d="M 146.716121 313.442612 
L 146.717394 313.453117 
L 146.724802 313.470839 
L 146.782681 313.498367 
L 146.958747 313.47664 
L 147.194812 313.401635 
L 147.739014 313.172394 
L 148.490517 312.806601 
L 150.051165 311.975469 
L 151.790146 310.996983 
L 155.261358 308.967741 
L 159.862835 306.200993 
L 165.736536 302.607399 
L 172.625197 298.348754 
L 180.244761 293.611719 
L 188.329957 288.572652 
L 196.697996 283.354497 
L 205.240116 278.031241 
L 213.893013 272.646233 
L 222.617589 267.226133 
L 231.387322 261.788711 
L 240.182611 256.346735 
L 248.98823 250.90979 
L 257.791909 245.48533 
L 266.583042 240.079576 
L 275.351766 234.698157 
L 284.0891 229.34608 
L 292.787772 224.027252 
L 301.442337 218.744443 
L 310.047696 213.500208 
L 318.597007 208.298163 
L 327.081187 203.143286 
L 335.491196 198.040521 
L 343.821834 192.992485 
L 352.073974 187.998134 
L 360.253066 183.053691 
L 368.3643 178.155575 
L 376.407144 173.303697 
L 384.372661 168.503056 
L 392.246037 163.762192 
L 400.013669 159.08892 
L 407.670722 154.485787 
L 415.224541 149.948052 
L 422.692232 145.465161 
L 430.093953 141.024776 
L 437.444404 136.617887 
L 444.744791 132.243598 
L 451.97807 127.911948 
L 459.110979 123.642663 
L 466.104474 119.458879 
" style="fill:none;stroke:#ff0000;stroke-linecap:square;"/>
   </g>
   <g id="line2d_36">
    <path clip-path="url(#p148fde2026)" d="M 146.716121 313.436395 
L 146.717394 313.424241 
L 146.724802 313.396928 
L 146.782681 313.294452 
L 146.958747 313.088091 
L 147.194812 312.85704 
L 147.739014 312.379686 
L 148.490517 311.767431 
L 150.051165 310.560076 
L 151.790146 309.258279 
L 155.261358 306.720201 
L 159.862835 303.421999 
L 165.736536 299.279794 
L 172.625197 294.489727 
L 180.244761 289.254739 
L 188.329957 283.755868 
L 196.697996 278.112894 
L 205.240116 272.393803 
L 213.893013 266.635938 
L 222.617589 260.860908 
L 231.387322 255.082502 
L 240.182611 249.310425 
L 248.98823 243.551921 
L 257.791909 237.812647 
L 266.583042 232.097456 
L 275.351766 226.410943 
L 284.0891 220.757317 
L 292.787772 215.139837 
L 301.442337 209.560734 
L 310.047696 204.022171 
L 318.597007 198.527574 
L 327.081187 193.081928 
L 335.491196 187.690264 
L 343.821834 182.355206 
L 352.073974 177.075533 
L 360.253066 171.84716 
L 368.3643 166.666226 
L 376.407144 161.532563 
L 384.372661 156.451375 
L 392.246037 151.43161 
L 400.013669 146.481466 
L 407.670722 141.603624 
L 415.224541 136.79312 
L 422.692232 132.038884 
L 430.093953 127.32797 
L 437.444404 122.650921 
L 444.744791 118.00683 
L 451.97807 113.406368 
L 459.110979 108.870544 
L 466.104474 104.424142 
" style="fill:none;stroke:#ff0000;stroke-linecap:square;"/>
   </g>
   <g id="line2d_37">
    <path clip-path="url(#p148fde2026)" d="M 146.716121 311.084504 
L 146.717394 311.089014 
L 146.724802 311.094452 
L 146.782681 311.083745 
L 146.958747 311.000492 
L 147.194812 310.866776 
L 147.739014 310.531572 
L 148.490517 310.045839 
L 150.051165 309.006918 
L 151.790146 307.830837 
L 155.261358 305.464644 
L 159.862835 302.319532 
L 165.736536 298.310505 
L 172.625197 293.626675 
L 180.244761 288.471897 
L 188.329957 283.031492 
L 196.697996 277.430195 
L 205.240116 271.740143 
L 213.893013 266.001747 
L 222.617589 260.238797 
L 231.387322 254.466627 
L 240.182611 248.696035 
L 248.98823 242.935048 
L 257.791909 237.189877 
L 266.583042 231.465772 
L 275.351766 225.767628 
L 284.0891 220.0999 
L 292.787772 214.466066 
L 301.442337 208.868546 
L 310.047696 203.309634 
L 318.597007 197.792826 
L 327.081187 192.323116 
L 335.491196 186.905504 
L 343.821834 181.542556 
L 352.073974 176.232968 
L 360.253066 170.972572 
L 368.3643 165.757467 
L 376.407144 160.587541 
L 384.372661 155.468166 
L 392.246037 150.408518 
L 400.013669 145.416977 
L 407.670722 140.496275 
L 415.224541 135.641343 
L 422.692232 130.840911 
L 430.093953 126.081831 
L 437.444404 121.354513 
L 444.744791 116.658015 
L 451.97807 112.003034 
L 459.110979 107.410583 
L 466.104474 102.905356 
" style="fill:none;stroke:#ff0000;stroke-linecap:square;"/>
   </g>
   <g id="line2d_38">
    <path clip-path="url(#p148fde2026)" d="M 146.716121 311.081525 
L 146.717394 311.075178 
L 146.724802 311.059043 
L 146.782681 310.986191 
L 146.958747 310.815389 
L 147.194812 310.608773 
L 147.739014 310.160707 
L 148.490517 309.56771 
L 150.051165 308.376489 
L 151.790146 307.08168 
L 155.261358 304.551511 
L 159.862835 301.262869 
L 165.736536 297.131313 
L 172.625197 292.348672 
L 180.244761 287.114187 
L 188.329957 281.607129 
L 196.697996 275.947027 
L 205.240116 270.202321 
L 213.893013 264.411011 
L 222.617589 258.595351 
L 231.387322 252.769692 
L 240.182611 246.944204 
L 248.98823 241.126507 
L 257.791909 235.322566 
L 266.583042 229.537505 
L 275.351766 223.776159 
L 284.0891 218.042948 
L 292.787772 212.341296 
L 301.442337 206.673533 
L 310.047696 201.041853 
L 318.597007 195.449672 
L 327.081187 189.901976 
L 335.491196 184.403841 
L 343.821834 178.957953 
L 352.073974 173.563109 
L 360.253066 168.215157 
L 368.3643 162.910126 
L 376.407144 157.647838 
L 384.372661 152.433701 
L 392.246037 147.277071 
L 400.013669 142.186556 
L 407.670722 137.164954 
L 415.224541 132.206945 
L 422.692232 127.300682 
L 430.093953 122.432313 
L 437.444404 117.591733 
L 444.744791 112.778009 
L 451.97807 108.002559 
L 459.110979 103.287721 
L 466.104474 98.659666 
" style="fill:none;stroke:#ff0000;stroke-linecap:square;"/>
   </g>
   <g id="line2d_39">
    <path clip-path="url(#p148fde2026)" d="M 146.716121 310.539006 
L 146.717394 310.540194 
L 146.724802 310.538996 
L 146.782681 310.508841 
L 146.958747 310.39702 
L 147.194812 310.238028 
L 147.739014 309.859898 
L 148.490517 309.327614 
L 150.051165 308.210123 
L 151.790146 306.961324 
L 155.261358 304.478702 
L 159.862835 301.218841 
L 165.736536 297.104433 
L 172.625197 292.331586 
L 180.244761 287.102738 
L 188.329957 281.599023 
L 196.697996 275.940991 
L 205.240116 270.197629 
L 213.893013 264.407224 
L 222.617589 258.592191 
L 231.387322 252.766973 
L 240.182611 246.941802 
L 248.98823 241.124349 
L 257.791909 235.320613 
L 266.583042 229.535734 
L 275.351766 223.774547 
L 284.0891 218.041456 
L 292.787772 212.339868 
L 301.442337 206.672097 
L 310.047696 201.040343 
L 318.597007 195.448059 
L 327.081187 189.900292 
L 335.491196 184.402165 
L 343.821834 178.956368 
L 352.073974 173.561657 
L 360.253066 168.213838 
L 368.3643 162.908936 
L 376.407144 157.646809 
L 384.372661 152.432885 
L 392.246037 147.276458 
L 400.013669 142.185977 
L 407.670722 137.164063 
L 415.224541 132.205334 
L 422.692232 127.298078 
L 430.093953 122.428764 
L 437.444404 117.58767 
L 444.744791 112.774132 
L 451.97807 107.999553 
L 459.110979 103.285955 
L 466.104474 98.659041 
" style="fill:none;stroke:#ff0000;stroke-linecap:square;"/>
   </g>
   <g id="line2d_40">
    <path clip-path="url(#p148fde2026)" d="M 146.716121 310.537845 
L 146.717394 310.534803 
L 146.724802 310.525208 
L 146.782681 310.471044 
L 146.958747 310.326401 
L 147.194812 310.14161 
L 147.739014 309.727695 
L 148.490517 309.16772 
L 150.051165 308.024221 
L 151.790146 306.766969 
L 155.261358 304.28872 
L 159.862835 301.04551 
L 165.736536 296.952654 
L 172.625197 292.20058 
L 180.244761 286.989278 
L 188.329957 281.499482 
L 196.697996 275.852226 
L 205.240116 270.117156 
L 213.893013 264.333146 
L 222.617589 258.523066 
L 231.387322 252.701703 
L 240.182611 246.879528 
L 248.98823 241.064372 
L 257.791909 235.26234 
L 266.583042 229.478652 
L 275.351766 223.718223 
L 284.0891 217.985551 
L 292.787772 212.28413 
L 301.442337 206.616359 
L 310.047696 200.98449 
L 318.597007 195.391973 
L 327.081187 189.84379 
L 335.491196 184.344967 
L 343.821834 178.898136 
L 352.073974 173.502081 
L 360.253066 168.152688 
L 368.3643 162.846051 
L 376.407144 157.582018 
L 384.372661 152.365962 
L 392.246037 147.207188 
L 400.013669 142.11432 
L 407.670722 137.090296 
L 415.224541 132.130012 
L 422.692232 127.22179 
L 430.093953 122.351764 
L 437.444404 117.50957 
L 444.744791 112.693845 
L 451.97807 107.915584 
L 459.110979 103.196934 
L 466.104474 98.564229 
" style="fill:none;stroke:#ff0000;stroke-linecap:square;"/>
   </g>
   <g id="line2d_41">
    <path clip-path="url(#p148fde2026)" d="M 188.751805 326.736248 
L 188.781996 326.771072 
L 188.940754 326.794951 
L 189.885985 326.673925 
L 191.318214 326.362977 
L 194.448395 325.549915 
L 201.118324 323.604826 
L 207.860133 321.511756 
L 214.587724 319.356298 
L 221.274863 317.171974 
L 227.910432 314.975929 
L 234.489071 312.778118 
L 241.00829 310.58469 
L 247.466398 308.39985 
L 253.860506 306.227153 
L 260.186167 304.069998 
L 266.436034 301.932306 
L 270.299467 300.608078 
L 274.135762 299.291242 
L 280.226664 297.196906 
L 286.246863 295.122909 
L 292.193065 293.070844 
L 298.068541 291.039957 
L 303.873276 289.030571 
L 309.602298 287.04468 
L 315.248925 285.084831 
L 320.810786 283.152033 
L 326.2935 281.244472 
L 331.708623 279.358224 
L 337.066764 277.489655 
L 342.369632 275.638205 
L 347.605758 273.8079 
L 352.753906 272.006178 
L 357.793779 270.240164 
L 362.717327 268.512718 
L 367.533201 266.820863 
L 372.262982 265.157087 
L 376.932642 263.512323 
L 381.562448 261.879493 
L 386.157261 260.256932 
L 390.700675 258.650484 
L 395.158917 257.072169 
L 399.496457 255.53469 
L 403.693847 254.045111 
L 407.755159 252.602168 
L 411.703718 251.197724 
L 415.573316 249.819838 
L 419.400074 248.455622 
L 423.215208 247.093811 
L 427.036741 245.727739 
L 430.859222 244.359085 
L 434.646078 243.000757 
L 438.336917 241.674451 
L 441.875212 240.400775 
L 445.235822 239.189216 
L 448.429133 238.036421 
L 451.487363 236.930947 
L 454.449981 235.858459 
" style="fill:none;stroke:#00ff00;stroke-linecap:square;"/>
   </g>
   <g id="line2d_42">
    <path clip-path="url(#p148fde2026)" d="M 188.751805 326.726964 
L 188.781996 326.673916 
L 188.940754 326.554167 
L 189.885985 326.102877 
L 191.318214 325.541143 
L 194.448395 324.421716 
L 201.118324 322.141234 
L 207.860133 319.846725 
L 214.587724 317.540795 
L 221.274863 315.230743 
L 227.910432 312.922699 
L 234.489071 310.621157 
L 241.00829 308.329249 
L 247.466398 306.04939 
L 253.860506 303.784032 
L 260.186167 301.535877 
L 266.436034 299.308429 
L 270.299467 297.928631 
L 274.135762 296.556469 
L 280.226664 294.373865 
L 286.246863 292.211967 
L 292.193065 290.072298 
L 298.068541 287.953955 
L 303.873276 285.857182 
L 309.602298 283.784018 
L 315.248925 281.737148 
L 320.810786 279.717702 
L 326.2935 277.723858 
L 331.708623 275.751545 
L 337.066764 273.796928 
L 342.369632 271.859362 
L 347.605758 269.943036 
L 352.753906 268.055822 
L 357.793779 266.205381 
L 362.717327 264.394952 
L 367.533201 262.621608 
L 372.262982 260.877542 
L 376.932642 259.153158 
L 381.562448 257.440826 
L 386.157261 255.738556 
L 390.700675 254.052341 
L 395.158917 252.394864 
L 399.496457 250.779771 
L 403.693847 249.21493 
L 407.755159 247.699463 
L 411.703718 246.225168 
L 415.573316 244.779698 
L 419.400074 243.349581 
L 423.215208 241.922946 
L 427.036741 240.492695 
L 430.859222 239.0605 
L 434.646078 237.639891 
L 438.336917 236.253716 
L 441.875212 234.923751 
L 445.235822 233.660117 
L 448.429133 232.459445 
L 451.487363 231.309881 
L 454.449981 230.196554 
" style="fill:none;stroke:#00ff00;stroke-linecap:square;"/>
   </g>
   <g id="line2d_43">
    <path clip-path="url(#p148fde2026)" d="M 188.751805 323.70473 
L 188.781996 323.791661 
L 188.940754 323.891938 
L 189.885985 323.91241 
L 191.318214 323.681448 
L 194.448395 322.931979 
L 201.118324 320.993324 
L 207.860133 318.853972 
L 214.587724 316.632088 
L 221.274863 314.370735 
L 227.910432 312.090867 
L 234.489071 309.80425 
L 241.00829 307.518003 
L 247.466398 305.236909 
L 253.860506 302.964928 
L 260.186167 300.705784 
L 266.436034 298.463714 
L 270.299467 297.073179 
L 274.135762 295.68915 
L 280.226664 293.485348 
L 286.246863 291.299747 
L 292.193065 289.134036 
L 298.068541 286.987393 
L 303.873276 284.860102 
L 309.602298 282.754198 
L 315.248925 280.672325 
L 320.810786 278.615535 
L 326.2935 276.581928 
L 331.708623 274.567382 
L 337.066764 272.568091 
L 342.369632 270.583533 
L 347.605758 268.618083 
L 352.753906 266.679781 
L 357.793779 264.776339 
L 362.717327 262.910877 
L 367.533201 261.080223 
L 372.262982 259.276285 
L 376.932642 257.489255 
L 381.562448 255.711427 
L 386.157261 253.940893 
L 390.700675 252.183829 
L 395.158917 250.453069 
L 399.496457 248.7622 
L 403.693847 247.118727 
L 407.755159 245.521178 
L 411.703718 243.960701 
L 415.573316 242.424403 
L 419.400074 240.898465 
L 423.215208 239.370896 
L 427.036741 237.83471 
L 430.859222 236.291902 
L 434.646078 234.756503 
L 438.336917 233.251898 
L 441.875212 231.800159 
L 445.235822 230.411274 
L 448.429133 229.081453 
L 451.487363 227.798468 
L 454.449981 226.547399 
" style="fill:none;stroke:#00ff00;stroke-linecap:square;"/>
   </g>
   <g id="line2d_44">
    <path clip-path="url(#p148fde2026)" d="M 188.751805 323.68386 
L 188.781996 323.572998 
L 188.940754 323.34685 
L 189.885985 322.575588 
L 191.318214 321.664984 
L 194.448395 319.906873 
L 201.118324 316.46888 
L 207.860133 313.153939 
L 214.587724 309.927677 
L 221.274863 306.774254 
L 227.910432 303.684275 
L 234.489071 300.65135 
L 241.00829 297.670683 
L 247.466398 294.738808 
L 253.860506 291.853864 
L 260.186167 289.01538 
L 266.436034 286.224651 
L 270.299467 284.505838 
L 274.135762 282.803585 
L 280.226664 280.109601 
L 286.246863 277.456767 
L 292.193065 274.845607 
L 298.068541 272.273878 
L 303.873276 269.740892 
L 309.602298 267.248204 
L 315.248925 264.798164 
L 320.810786 262.391289 
L 326.2935 260.024679 
L 331.708623 257.692927 
L 337.066764 255.391095 
L 342.369632 253.118121 
L 347.605758 250.87862 
L 352.753906 248.681392 
L 357.793779 246.534823 
L 362.717327 244.442068 
L 367.533201 242.399187 
L 372.262982 240.396778 
L 376.932642 238.423619 
L 381.562448 236.470945 
L 386.157261 234.536527 
L 390.700675 232.627128 
L 395.158917 230.75683 
L 399.496457 228.940455 
L 403.693847 227.186077 
L 407.755159 225.491916 
L 411.703718 223.848148 
L 415.573316 222.240585 
L 419.400074 220.654067 
L 423.215208 219.075455 
L 427.036741 217.49705 
L 430.859222 215.920827 
L 434.646078 214.361605 
L 438.336917 212.844067 
L 441.875212 211.391399 
L 445.235822 210.013974 
L 448.429133 208.707645 
L 451.487363 207.459356 
L 454.449981 206.253102 
" style="fill:none;stroke:#00ff00;stroke-linecap:square;"/>
   </g>
   <g id="line2d_45">
    <path clip-path="url(#p148fde2026)" d="M 188.751805 304.239472 
L 188.781996 304.285666 
L 188.940754 304.315122 
L 189.885985 304.137929 
L 191.318214 303.698949 
L 194.448395 302.562139 
L 201.118324 299.859675 
L 207.860133 296.96254 
L 214.587724 293.985373 
L 221.274863 290.972626 
L 227.910432 287.946852 
L 234.489071 284.921046 
L 241.00829 281.903168 
L 247.466398 278.898629 
L 253.860506 275.912037 
L 260.186167 272.947844 
L 266.436034 270.011265 
L 270.299467 268.192538 
L 274.135762 266.384227 
L 280.226664 263.508739 
L 286.246863 260.661744 
L 292.193065 257.845363 
L 298.068541 255.058492 
L 303.873276 252.301483 
L 309.602298 249.576974 
L 315.248925 246.888374 
L 320.810786 244.237003 
L 326.2935 241.620345 
L 331.708623 239.033012 
L 337.066764 236.470035 
L 342.369632 233.930674 
L 347.605758 231.420498 
L 352.753906 228.949772 
L 357.793779 226.528337 
L 362.717327 224.16017 
L 367.533201 221.84121 
L 372.262982 219.561138 
L 376.932642 217.307465 
L 381.562448 215.070396 
L 386.157261 212.847539 
L 390.700675 210.646779 
L 395.158917 208.48445 
L 399.496457 206.377818 
L 403.693847 204.336422 
L 407.755159 202.358416 
L 411.703718 200.43259 
L 415.573316 198.542596 
L 419.400074 196.670899 
L 423.215208 194.802315 
L 427.036741 192.92807 
L 430.859222 191.050883 
L 434.646078 189.18876 
L 438.336917 187.371464 
L 441.875212 185.62692 
L 445.235822 183.967634 
L 448.429133 182.388577 
L 451.487363 180.87389 
L 454.449981 179.404055 
" style="fill:none;stroke:#00ff00;stroke-linecap:square;"/>
   </g>
   <g id="line2d_46">
    <path clip-path="url(#p148fde2026)" d="M 188.751805 304.227025 
L 188.781996 304.155425 
L 188.940754 303.992317 
L 189.885985 303.371932 
L 191.318214 302.595664 
L 194.448395 301.04515 
L 201.118324 297.886222 
L 207.860133 294.712559 
L 214.587724 291.527793 
L 221.274863 288.341167 
L 227.910432 285.160377 
L 234.489071 281.991012 
L 241.00829 278.836909 
L 247.466398 275.701002 
L 253.860506 272.586357 
L 260.186167 269.496446 
L 266.436034 266.435907 
L 270.299467 264.540456 
L 274.135762 262.655786 
L 280.226664 259.65854 
L 286.246863 256.690396 
L 292.193065 253.75341 
L 298.068541 250.846305 
L 303.873276 247.969361 
L 309.602298 245.125282 
L 315.248925 242.317608 
L 320.810786 239.547717 
L 326.2935 236.812956 
L 331.708623 234.10764 
L 337.066764 231.426499 
L 342.369632 228.768715 
L 347.605758 226.140142 
L 352.753906 223.551672 
L 357.793779 221.013857 
L 362.717327 218.531142 
L 367.533201 216.099508 
L 372.262982 213.70827 
L 376.932642 211.344342 
L 381.562448 208.997356 
L 386.157261 206.664668 
L 390.700675 204.354481 
L 395.158917 202.084046 
L 399.496457 199.871812 
L 403.693847 197.728277 
L 407.755159 195.652011 
L 411.703718 193.631646 
L 415.573316 191.650243 
L 419.400074 189.689413 
L 423.215208 187.733028 
L 427.036741 185.771544 
L 430.859222 183.807451 
L 434.646078 181.85945 
L 438.336917 179.95894 
L 441.875212 178.135757 
L 445.235822 176.403705 
L 448.429133 174.75809 
L 451.487363 173.182605 
L 454.449981 171.656842 
" style="fill:none;stroke:#00ff00;stroke-linecap:square;"/>
   </g>
   <g id="line2d_47">
    <path clip-path="url(#p148fde2026)" d="M 188.751805 300.192231 
L 188.781996 300.307072 
L 188.940754 300.436845 
L 189.885985 300.443788 
L 191.318214 300.106916 
L 194.448395 299.047453 
L 201.118324 296.341737 
L 207.860133 293.373404 
L 214.587724 290.299537 
L 221.274863 287.176842 
L 227.910432 284.032686 
L 234.489071 280.882312 
L 241.00829 277.73486 
L 247.466398 274.596433 
L 253.860506 271.472116 
L 260.186167 268.366735 
L 266.436034 265.285872 
L 270.299467 263.375563 
L 274.135762 261.474489 
L 280.226664 258.447934 
L 286.246863 255.446959 
L 292.193065 252.473803 
L 298.068541 249.527293 
L 303.873276 246.607798 
L 309.602298 243.718131 
L 315.248925 240.86195 
L 320.810786 238.04072 
L 326.2935 235.251814 
L 331.708623 232.489506 
L 337.066764 229.748456 
L 342.369632 227.027784 
L 347.605758 224.333317 
L 352.753906 221.675912 
L 357.793779 219.066018 
L 362.717327 216.507862 
L 367.533201 213.997119 
L 372.262982 211.5228 
L 376.932642 209.071625 
L 381.562448 206.633222 
L 386.157261 204.20515 
L 390.700675 201.795958 
L 395.158917 199.423209 
L 399.496457 197.105404 
L 403.693847 194.852725 
L 407.755159 192.663169 
L 411.703718 190.524792 
L 415.573316 188.420283 
L 419.400074 186.331167 
L 423.215208 184.241464 
L 427.036741 182.141837 
L 430.859222 180.034797 
L 434.646078 177.938692 
L 438.336917 175.884156 
L 441.875212 173.900022 
L 445.235822 171.999139 
L 448.429133 170.176217 
L 451.487363 168.414971 
L 454.449981 166.695718 
" style="fill:none;stroke:#00ff00;stroke-linecap:square;"/>
   </g>
   <g id="line2d_48">
    <path clip-path="url(#p148fde2026)" d="M 188.751805 300.164498 
L 188.781996 300.016528 
L 188.940754 299.712507 
L 189.885985 298.666399 
L 191.318214 297.42379 
L 194.448395 295.015762 
L 201.118324 290.293808 
L 207.860133 285.734587 
L 214.587724 281.295076 
L 221.274863 276.955059 
L 227.910432 272.702353 
L 234.489071 268.528551 
L 241.00829 264.427252 
L 247.466398 260.393785 
L 253.860506 256.425617 
L 260.186167 252.522088 
L 266.436034 248.68494 
L 270.299467 246.321979 
L 274.135762 243.982035 
L 280.226664 240.279342 
L 286.246863 236.633791 
L 292.193065 233.046056 
L 298.068541 229.513007 
L 303.873276 226.03365 
L 309.602298 222.61007 
L 315.248925 219.245442 
L 320.810786 215.940419 
L 326.2935 212.690971 
L 331.708623 209.489639 
L 337.066764 206.329629 
L 342.369632 203.209501 
L 347.605758 200.135626 
L 352.753906 197.120124 
L 357.793779 194.174532 
L 362.717327 191.303181 
L 367.533201 188.500644 
L 372.262982 185.753985 
L 376.932642 183.047756 
L 381.562448 180.369863 
L 386.157261 177.717158 
L 390.700675 175.098796 
L 395.158917 172.533965 
L 399.496457 170.042896 
L 403.693847 167.63662 
L 407.755159 165.312719 
L 411.703718 163.057779 
L 415.573316 160.852415 
L 419.400074 158.675893 
L 423.215208 156.510213 
L 427.036741 154.344773 
L 430.859222 152.182179 
L 434.646078 150.042618 
L 438.336917 147.959849 
L 441.875212 145.96569 
L 445.235822 144.074525 
L 448.429133 142.280909 
L 451.487363 140.567225 
L 454.449981 138.911825 
" style="fill:none;stroke:#00ff00;stroke-linecap:square;"/>
   </g>
   <g id="line2d_49">
    <path clip-path="url(#p148fde2026)" d="M 188.751805 278.113291 
L 188.781996 278.1268 
L 188.940754 278.07415 
L 189.885985 277.5612 
L 191.318214 276.694611 
L 194.448395 274.721269 
L 201.118324 270.415917 
L 207.860133 266.018332 
L 214.587724 261.61143 
L 221.274863 257.221779 
L 227.910432 252.861065 
L 234.489071 248.535125 
L 241.00829 244.246878 
L 247.466398 239.99814 
L 253.860506 235.79117 
L 260.186167 231.629035 
L 266.436034 227.516581 
L 270.299467 224.974292 
L 274.135762 222.449735 
L 280.226664 218.441151 
L 286.246863 214.478574 
L 292.193065 210.564038 
L 298.068541 206.695242 
L 303.873276 202.872039 
L 309.602298 199.097534 
L 315.248925 195.375963 
L 320.810786 191.708729 
L 326.2935 188.091966 
L 331.708623 184.517886 
L 337.066764 180.979308 
L 342.369632 177.47493 
L 347.605758 174.012184 
L 352.753906 170.605023 
L 357.793779 167.266863 
L 362.717327 164.003071 
L 367.533201 160.807975 
L 372.262982 157.6673 
L 376.932642 154.563808 
L 381.562448 151.483996 
L 386.157261 148.424579 
L 390.700675 145.396445 
L 395.158917 142.42212 
L 399.496457 139.525379 
L 403.693847 136.719309 
L 407.755159 134.001255 
L 411.703718 131.355606 
L 415.573316 128.759618 
L 419.400074 126.188869 
L 423.215208 123.622135 
L 427.036741 121.047039 
L 430.859222 118.467109 
L 434.646078 115.907108 
L 438.336917 113.408225 
L 441.875212 111.009305 
L 445.235822 108.728003 
L 448.429133 106.557763 
L 451.487363 104.477002 
L 454.449981 102.458995 
" style="fill:none;stroke:#00ff00;stroke-linecap:square;"/>
   </g>
   <g id="line2d_50">
    <path clip-path="url(#p148fde2026)" d="M 188.751805 278.106046 
L 188.781996 278.051001 
L 188.940754 277.885266 
L 189.885985 277.098757 
L 191.318214 275.998771 
L 194.448395 273.682549 
L 201.118324 268.876236 
L 207.860133 264.092114 
L 214.587724 259.357373 
L 221.274863 254.676572 
L 227.910432 250.049905 
L 234.489071 245.476297 
L 241.00829 240.954104 
L 247.466398 236.481964 
L 253.860506 232.059874 
L 260.186167 227.689312 
L 266.436034 223.374096 
L 270.299467 220.707677 
L 274.135762 218.060582 
L 280.226664 213.858575 
L 286.246863 209.705744 
L 292.193065 205.603786 
L 298.068541 201.549928 
L 303.873276 197.543634 
L 309.602298 193.587737 
L 315.248925 189.686337 
L 320.810786 185.840835 
L 326.2935 182.047393 
L 331.708623 178.298154 
L 337.066764 174.58577 
L 342.369632 170.908876 
L 347.605758 167.275228 
L 352.753906 163.699542 
L 357.793779 160.196037 
L 362.717327 156.770317 
L 367.533201 153.416036 
L 372.262982 150.117542 
L 376.932642 146.856139 
L 381.562448 143.617557 
L 386.157261 140.399018 
L 390.700675 137.213271 
L 395.158917 134.085358 
L 399.496457 131.041016 
L 403.693847 128.093863 
L 407.755159 125.240392 
L 411.703718 122.463447 
L 415.573316 119.738778 
L 419.400074 117.040954 
L 423.215208 114.348453 
L 427.036741 111.649368 
L 430.859222 108.948421 
L 434.646078 106.272096 
L 438.336917 103.663333 
L 441.875212 101.162049 
L 445.235822 98.7859 
L 448.429133 96.527461 
L 451.487363 94.363869 
L 454.449981 92.267049 
" style="fill:none;stroke:#00ff00;stroke-linecap:square;"/>
   </g>
   <g id="line2d_51">
    <path clip-path="url(#p148fde2026)" d="M 188.751805 277.054976 
L 188.781996 277.048606 
L 188.940754 276.959545 
L 189.885985 276.33804 
L 191.318214 275.35418 
L 194.448395 273.168209 
L 201.118324 268.482537 
L 207.860133 263.753154 
L 214.587724 259.047907 
L 221.274863 254.383962 
L 227.910432 249.766697 
L 234.489071 245.197526 
L 241.00829 240.676164 
L 247.466398 236.20212 
L 253.860506 231.776039 
L 260.186167 227.399846 
L 266.436034 223.077591 
L 270.299467 220.406091 
L 274.135762 217.753373 
L 280.226664 213.541162 
L 286.246863 209.376542 
L 292.193065 205.261136 
L 298.068541 201.19225 
L 303.873276 197.169619 
L 309.602298 193.196417 
L 315.248925 189.276976 
L 320.810786 185.412697 
L 326.2935 181.599481 
L 331.708623 177.828941 
L 337.066764 174.09301 
L 342.369632 170.389655 
L 347.605758 166.726395 
L 352.753906 163.118363 
L 357.793779 159.580674 
L 362.717327 156.119842 
L 367.533201 152.73003 
L 372.262982 149.395622 
L 376.932642 146.097657 
L 381.562448 142.821518 
L 386.157261 139.564032 
L 390.700675 136.33726 
L 395.158917 133.16502 
L 399.496457 130.071468 
L 403.693847 127.068957 
L 407.755159 124.153666 
L 411.703718 121.309166 
L 415.573316 118.512554 
L 419.400074 115.739665 
L 423.215208 112.969404 
L 427.036741 110.188847 
L 430.859222 107.400174 
L 434.646078 104.626718 
L 438.336917 101.909561 
L 441.875212 99.289583 
L 445.235822 96.787957 
L 448.429133 94.401786 
L 451.487363 92.112312 
L 454.449981 89.894277 
" style="fill:none;stroke:#00ff00;stroke-linecap:square;"/>
   </g>
   <g id="line2d_52">
    <path clip-path="url(#p148fde2026)" d="M 188.751805 277.051719 
L 188.781996 277.01468 
L 188.940754 276.87551 
L 189.885985 276.139029 
L 191.318214 275.068323 
L 194.448395 272.777272 
L 201.118324 267.978563 
L 207.860133 263.182187 
L 214.587724 258.42664 
L 221.274863 253.719778 
L 227.910432 249.06308 
L 234.489071 244.456088 
L 241.00829 239.897535 
L 247.466398 235.386327 
L 253.860506 230.922657 
L 260.186167 226.508105 
L 266.436034 222.146484 
L 270.299467 219.449786 
L 274.135762 216.771316 
L 280.226664 212.516626 
L 286.246863 208.3081 
L 292.193065 204.147522 
L 298.068541 200.032185 
L 303.873276 195.961665 
L 309.602298 191.939047 
L 315.248925 187.968752 
L 320.810786 184.052216 
L 326.2935 180.184973 
L 331.708623 176.357891 
L 337.066764 172.562313 
L 342.369632 168.79639 
L 347.605758 165.068696 
L 352.753906 161.395658 
L 357.793779 157.793022 
L 362.717327 154.266848 
L 367.533201 150.810167 
L 372.262982 147.406342 
L 376.932642 144.036088 
L 381.562448 140.685145 
L 386.157261 137.350744 
L 390.700675 134.044685 
L 395.158917 130.789815 
L 399.496457 127.609518 
L 403.693847 124.516557 
L 407.755159 121.508735 
L 411.703718 118.571514 
L 415.573316 115.682847 
L 419.400074 112.817331 
L 423.215208 109.950147 
L 427.036741 107.062982 
L 430.859222 104.153591 
L 434.646078 101.245967 
L 438.336917 98.389608 
L 441.875212 95.638705 
L 445.235822 93.025226 
L 448.429133 90.548841 
L 451.487363 88.184468 
L 454.449981 85.894466 
" style="fill:none;stroke:#00ff00;stroke-linecap:square;"/>
   </g>
   <g id="patch_3">
    <path d="M 57.6 43.2 
L 518.4 43.2 
" style="fill:none;stroke:#000000;stroke-linecap:square;stroke-linejoin:miter;"/>
   </g>
   <g id="patch_4">
    <path d="M 518.4 388.8 
L 518.4 43.2 
" style="fill:none;stroke:#000000;stroke-linecap:square;stroke-linejoin:miter;"/>
   </g>
   <g id="patch_5">
    <path d="M 57.6 388.8 
L 518.4 388.8 
" style="fill:none;stroke:#000000;stroke-linecap:square;stroke-linejoin:miter;"/>
   </g>
   <g id="patch_6">
    <path d="M 57.6 388.8 
L 57.6 43.2 
" style="fill:none;stroke:#000000;stroke-linecap:square;stroke-linejoin:miter;"/>
   </g>
   <g id="matplotlib.axis_1">
    <g id="xtick_1">
     <g id="line2d_53">
      <defs>
       <path d="M 0 0 
L 0 -4 
" id="m407a5833ac" style="stroke:#000000;stroke-width:0.5;"/>
      </defs>
      <g>
       <use style="stroke:#000000;stroke-width:0.5;" x="57.6" xlink:href="#m407a5833ac" y="388.8"/>
      </g>
     </g>
     <g id="line2d_54">
      <defs>
       <path d="M 0 0 
L 0 4 
" id="mf7948d5d68" style="stroke:#000000;stroke-width:0.5;"/>
      </defs>
      <g>
       <use style="stroke:#000000;stroke-width:0.5;" x="57.6" xlink:href="#mf7948d5d68" y="43.2"/>
      </g>
     </g>
     <g id="text_1">
      <!-- 0 -->
      <defs>
       <path d="M 31.78125 66.40625 
Q 24.171875 66.40625 20.328125 58.90625 
Q 16.5 51.421875 16.5 36.375 
Q 16.5 21.390625 20.328125 13.890625 
Q 24.171875 6.390625 31.78125 6.390625 
Q 39.453125 6.390625 43.28125 13.890625 
Q 47.125 21.390625 47.125 36.375 
Q 47.125 51.421875 43.28125 58.90625 
Q 39.453125 66.40625 31.78125 66.40625 
M 31.78125 74.21875 
Q 44.046875 74.21875 50.515625 64.515625 
Q 56.984375 54.828125 56.984375 36.375 
Q 56.984375 17.96875 50.515625 8.265625 
Q 44.046875 -1.421875 31.78125 -1.421875 
Q 19.53125 -1.421875 13.0625 8.265625 
Q 6.59375 17.96875 6.59375 36.375 
Q 6.59375 54.828125 13.0625 64.515625 
Q 19.53125 74.21875 31.78125 74.21875 
" id="BitstreamVeraSans-Roman-30"/>
      </defs>
      <g transform="translate(53.7825 401.918125)scale(0.12 -0.12)">
       <use xlink:href="#BitstreamVeraSans-Roman-30"/>
      </g>
     </g>
    </g>
    <g id="xtick_2">
     <g id="line2d_55">
      <g>
       <use style="stroke:#000000;stroke-width:0.5;" x="108.8" xlink:href="#m407a5833ac" y="388.8"/>
      </g>
     </g>
     <g id="line2d_56">
      <g>
       <use style="stroke:#000000;stroke-width:0.5;" x="108.8" xlink:href="#mf7948d5d68" y="43.2"/>
      </g>
     </g>
     <g id="text_2">
      <!-- 5 -->
      <defs>
       <path d="M 10.796875 72.90625 
L 49.515625 72.90625 
L 49.515625 64.59375 
L 19.828125 64.59375 
L 19.828125 46.734375 
Q 21.96875 47.46875 24.109375 47.828125 
Q 26.265625 48.1875 28.421875 48.1875 
Q 40.625 48.1875 47.75 41.5 
Q 54.890625 34.8125 54.890625 23.390625 
Q 54.890625 11.625 47.5625 5.09375 
Q 40.234375 -1.421875 26.90625 -1.421875 
Q 22.3125 -1.421875 17.546875 -0.640625 
Q 12.796875 0.140625 7.71875 1.703125 
L 7.71875 11.625 
Q 12.109375 9.234375 16.796875 8.0625 
Q 21.484375 6.890625 26.703125 6.890625 
Q 35.15625 6.890625 40.078125 11.328125 
Q 45.015625 15.765625 45.015625 23.390625 
Q 45.015625 31 40.078125 35.4375 
Q 35.15625 39.890625 26.703125 39.890625 
Q 22.75 39.890625 18.8125 39.015625 
Q 14.890625 38.140625 10.796875 36.28125 
z
" id="BitstreamVeraSans-Roman-35"/>
      </defs>
      <g transform="translate(104.9825 401.918125)scale(0.12 -0.12)">
       <use xlink:href="#BitstreamVeraSans-Roman-35"/>
      </g>
     </g>
    </g>
    <g id="xtick_3">
     <g id="line2d_57">
      <g>
       <use style="stroke:#000000;stroke-width:0.5;" x="160.0" xlink:href="#m407a5833ac" y="388.8"/>
      </g>
     </g>
     <g id="line2d_58">
      <g>
       <use style="stroke:#000000;stroke-width:0.5;" x="160.0" xlink:href="#mf7948d5d68" y="43.2"/>
      </g>
     </g>
     <g id="text_3">
      <!-- 10 -->
      <defs>
       <path d="M 12.40625 8.296875 
L 28.515625 8.296875 
L 28.515625 63.921875 
L 10.984375 60.40625 
L 10.984375 69.390625 
L 28.421875 72.90625 
L 38.28125 72.90625 
L 38.28125 8.296875 
L 54.390625 8.296875 
L 54.390625 0 
L 12.40625 0 
z
" id="BitstreamVeraSans-Roman-31"/>
      </defs>
      <g transform="translate(152.365 401.918125)scale(0.12 -0.12)">
       <use xlink:href="#BitstreamVeraSans-Roman-31"/>
       <use x="63.623046875" xlink:href="#BitstreamVeraSans-Roman-30"/>
      </g>
     </g>
    </g>
    <g id="xtick_4">
     <g id="line2d_59">
      <g>
       <use style="stroke:#000000;stroke-width:0.5;" x="211.2" xlink:href="#m407a5833ac" y="388.8"/>
      </g>
     </g>
     <g id="line2d_60">
      <g>
       <use style="stroke:#000000;stroke-width:0.5;" x="211.2" xlink:href="#mf7948d5d68" y="43.2"/>
      </g>
     </g>
     <g id="text_4">
      <!-- 15 -->
      <g transform="translate(203.565 401.918125)scale(0.12 -0.12)">
       <use xlink:href="#BitstreamVeraSans-Roman-31"/>
       <use x="63.623046875" xlink:href="#BitstreamVeraSans-Roman-35"/>
      </g>
     </g>
    </g>
    <g id="xtick_5">
     <g id="line2d_61">
      <g>
       <use style="stroke:#000000;stroke-width:0.5;" x="262.4" xlink:href="#m407a5833ac" y="388.8"/>
      </g>
     </g>
     <g id="line2d_62">
      <g>
       <use style="stroke:#000000;stroke-width:0.5;" x="262.4" xlink:href="#mf7948d5d68" y="43.2"/>
      </g>
     </g>
     <g id="text_5">
      <!-- 20 -->
      <defs>
       <path d="M 19.1875 8.296875 
L 53.609375 8.296875 
L 53.609375 0 
L 7.328125 0 
L 7.328125 8.296875 
Q 12.9375 14.109375 22.625 23.890625 
Q 32.328125 33.6875 34.8125 36.53125 
Q 39.546875 41.84375 41.421875 45.53125 
Q 43.3125 49.21875 43.3125 52.78125 
Q 43.3125 58.59375 39.234375 62.25 
Q 35.15625 65.921875 28.609375 65.921875 
Q 23.96875 65.921875 18.8125 64.3125 
Q 13.671875 62.703125 7.8125 59.421875 
L 7.8125 69.390625 
Q 13.765625 71.78125 18.9375 73 
Q 24.125 74.21875 28.421875 74.21875 
Q 39.75 74.21875 46.484375 68.546875 
Q 53.21875 62.890625 53.21875 53.421875 
Q 53.21875 48.921875 51.53125 44.890625 
Q 49.859375 40.875 45.40625 35.40625 
Q 44.1875 33.984375 37.640625 27.21875 
Q 31.109375 20.453125 19.1875 8.296875 
" id="BitstreamVeraSans-Roman-32"/>
      </defs>
      <g transform="translate(254.765 401.918125)scale(0.12 -0.12)">
       <use xlink:href="#BitstreamVeraSans-Roman-32"/>
       <use x="63.623046875" xlink:href="#BitstreamVeraSans-Roman-30"/>
      </g>
     </g>
    </g>
    <g id="xtick_6">
     <g id="line2d_63">
      <g>
       <use style="stroke:#000000;stroke-width:0.5;" x="313.6" xlink:href="#m407a5833ac" y="388.8"/>
      </g>
     </g>
     <g id="line2d_64">
      <g>
       <use style="stroke:#000000;stroke-width:0.5;" x="313.6" xlink:href="#mf7948d5d68" y="43.2"/>
      </g>
     </g>
     <g id="text_6">
      <!-- 25 -->
      <g transform="translate(305.965 401.918125)scale(0.12 -0.12)">
       <use xlink:href="#BitstreamVeraSans-Roman-32"/>
       <use x="63.623046875" xlink:href="#BitstreamVeraSans-Roman-35"/>
      </g>
     </g>
    </g>
    <g id="xtick_7">
     <g id="line2d_65">
      <g>
       <use style="stroke:#000000;stroke-width:0.5;" x="364.8" xlink:href="#m407a5833ac" y="388.8"/>
      </g>
     </g>
     <g id="line2d_66">
      <g>
       <use style="stroke:#000000;stroke-width:0.5;" x="364.8" xlink:href="#mf7948d5d68" y="43.2"/>
      </g>
     </g>
     <g id="text_7">
      <!-- 30 -->
      <defs>
       <path d="M 40.578125 39.3125 
Q 47.65625 37.796875 51.625 33 
Q 55.609375 28.21875 55.609375 21.1875 
Q 55.609375 10.40625 48.1875 4.484375 
Q 40.765625 -1.421875 27.09375 -1.421875 
Q 22.515625 -1.421875 17.65625 -0.515625 
Q 12.796875 0.390625 7.625 2.203125 
L 7.625 11.71875 
Q 11.71875 9.328125 16.59375 8.109375 
Q 21.484375 6.890625 26.8125 6.890625 
Q 36.078125 6.890625 40.9375 10.546875 
Q 45.796875 14.203125 45.796875 21.1875 
Q 45.796875 27.640625 41.28125 31.265625 
Q 36.765625 34.90625 28.71875 34.90625 
L 20.21875 34.90625 
L 20.21875 43.015625 
L 29.109375 43.015625 
Q 36.375 43.015625 40.234375 45.921875 
Q 44.09375 48.828125 44.09375 54.296875 
Q 44.09375 59.90625 40.109375 62.90625 
Q 36.140625 65.921875 28.71875 65.921875 
Q 24.65625 65.921875 20.015625 65.03125 
Q 15.375 64.15625 9.8125 62.3125 
L 9.8125 71.09375 
Q 15.4375 72.65625 20.34375 73.4375 
Q 25.25 74.21875 29.59375 74.21875 
Q 40.828125 74.21875 47.359375 69.109375 
Q 53.90625 64.015625 53.90625 55.328125 
Q 53.90625 49.265625 50.4375 45.09375 
Q 46.96875 40.921875 40.578125 39.3125 
" id="BitstreamVeraSans-Roman-33"/>
      </defs>
      <g transform="translate(357.165 401.918125)scale(0.12 -0.12)">
       <use xlink:href="#BitstreamVeraSans-Roman-33"/>
       <use x="63.623046875" xlink:href="#BitstreamVeraSans-Roman-30"/>
      </g>
     </g>
    </g>
    <g id="xtick_8">
     <g id="line2d_67">
      <g>
       <use style="stroke:#000000;stroke-width:0.5;" x="416.0" xlink:href="#m407a5833ac" y="388.8"/>
      </g>
     </g>
     <g id="line2d_68">
      <g>
       <use style="stroke:#000000;stroke-width:0.5;" x="416.0" xlink:href="#mf7948d5d68" y="43.2"/>
      </g>
     </g>
     <g id="text_8">
      <!-- 35 -->
      <g transform="translate(408.365 401.918125)scale(0.12 -0.12)">
       <use xlink:href="#BitstreamVeraSans-Roman-33"/>
       <use x="63.623046875" xlink:href="#BitstreamVeraSans-Roman-35"/>
      </g>
     </g>
    </g>
    <g id="xtick_9">
     <g id="line2d_69">
      <g>
       <use style="stroke:#000000;stroke-width:0.5;" x="467.2" xlink:href="#m407a5833ac" y="388.8"/>
      </g>
     </g>
     <g id="line2d_70">
      <g>
       <use style="stroke:#000000;stroke-width:0.5;" x="467.2" xlink:href="#mf7948d5d68" y="43.2"/>
      </g>
     </g>
     <g id="text_9">
      <!-- 40 -->
      <defs>
       <path d="M 37.796875 64.3125 
L 12.890625 25.390625 
L 37.796875 25.390625 
z
M 35.203125 72.90625 
L 47.609375 72.90625 
L 47.609375 25.390625 
L 58.015625 25.390625 
L 58.015625 17.1875 
L 47.609375 17.1875 
L 47.609375 0 
L 37.796875 0 
L 37.796875 17.1875 
L 4.890625 17.1875 
L 4.890625 26.703125 
z
" id="BitstreamVeraSans-Roman-34"/>
      </defs>
      <g transform="translate(459.565 401.918125)scale(0.12 -0.12)">
       <use xlink:href="#BitstreamVeraSans-Roman-34"/>
       <use x="63.623046875" xlink:href="#BitstreamVeraSans-Roman-30"/>
      </g>
     </g>
    </g>
    <g id="xtick_10">
     <g id="line2d_71">
      <g>
       <use style="stroke:#000000;stroke-width:0.5;" x="518.4" xlink:href="#m407a5833ac" y="388.8"/>
      </g>
     </g>
     <g id="line2d_72">
      <g>
       <use style="stroke:#000000;stroke-width:0.5;" x="518.4" xlink:href="#mf7948d5d68" y="43.2"/>
      </g>
     </g>
     <g id="text_10">
      <!-- 45 -->
      <g transform="translate(510.765 401.918125)scale(0.12 -0.12)">
       <use xlink:href="#BitstreamVeraSans-Roman-34"/>
       <use x="63.623046875" xlink:href="#BitstreamVeraSans-Roman-35"/>
      </g>
     </g>
    </g>
   </g>
   <g id="matplotlib.axis_2">
    <g id="ytick_1">
     <g id="line2d_73">
      <defs>
       <path d="M 0 0 
L 4 0 
" id="m6773a0a4c9" style="stroke:#000000;stroke-width:0.5;"/>
      </defs>
      <g>
       <use style="stroke:#000000;stroke-width:0.5;" x="57.6" xlink:href="#m6773a0a4c9" y="388.8"/>
      </g>
     </g>
     <g id="line2d_74">
      <defs>
       <path d="M 0 0 
L -4 0 
" id="m842061c2ad" style="stroke:#000000;stroke-width:0.5;"/>
      </defs>
      <g>
       <use style="stroke:#000000;stroke-width:0.5;" x="518.4" xlink:href="#m842061c2ad" y="388.8"/>
      </g>
     </g>
     <g id="text_11">
      <!-- 0 -->
      <g transform="translate(45.965 392.11125)scale(0.12 -0.12)">
       <use xlink:href="#BitstreamVeraSans-Roman-30"/>
      </g>
     </g>
    </g>
    <g id="ytick_2">
     <g id="line2d_75">
      <g>
       <use style="stroke:#000000;stroke-width:0.5;" x="57.6" xlink:href="#m6773a0a4c9" y="331.2"/>
      </g>
     </g>
     <g id="line2d_76">
      <g>
       <use style="stroke:#000000;stroke-width:0.5;" x="518.4" xlink:href="#m842061c2ad" y="331.2"/>
      </g>
     </g>
     <g id="text_12">
      <!-- 10 -->
      <g transform="translate(38.33 334.51125)scale(0.12 -0.12)">
       <use xlink:href="#BitstreamVeraSans-Roman-31"/>
       <use x="63.623046875" xlink:href="#BitstreamVeraSans-Roman-30"/>
      </g>
     </g>
    </g>
    <g id="ytick_3">
     <g id="line2d_77">
      <g>
       <use style="stroke:#000000;stroke-width:0.5;" x="57.6" xlink:href="#m6773a0a4c9" y="273.6"/>
      </g>
     </g>
     <g id="line2d_78">
      <g>
       <use style="stroke:#000000;stroke-width:0.5;" x="518.4" xlink:href="#m842061c2ad" y="273.6"/>
      </g>
     </g>
     <g id="text_13">
      <!-- 20 -->
      <g transform="translate(38.33 276.91125)scale(0.12 -0.12)">
       <use xlink:href="#BitstreamVeraSans-Roman-32"/>
       <use x="63.623046875" xlink:href="#BitstreamVeraSans-Roman-30"/>
      </g>
     </g>
    </g>
    <g id="ytick_4">
     <g id="line2d_79">
      <g>
       <use style="stroke:#000000;stroke-width:0.5;" x="57.6" xlink:href="#m6773a0a4c9" y="216.0"/>
      </g>
     </g>
     <g id="line2d_80">
      <g>
       <use style="stroke:#000000;stroke-width:0.5;" x="518.4" xlink:href="#m842061c2ad" y="216.0"/>
      </g>
     </g>
     <g id="text_14">
      <!-- 30 -->
      <g transform="translate(38.33 219.31125)scale(0.12 -0.12)">
       <use xlink:href="#BitstreamVeraSans-Roman-33"/>
       <use x="63.623046875" xlink:href="#BitstreamVeraSans-Roman-30"/>
      </g>
     </g>
    </g>
    <g id="ytick_5">
     <g id="line2d_81">
      <g>
       <use style="stroke:#000000;stroke-width:0.5;" x="57.6" xlink:href="#m6773a0a4c9" y="158.4"/>
      </g>
     </g>
     <g id="line2d_82">
      <g>
       <use style="stroke:#000000;stroke-width:0.5;" x="518.4" xlink:href="#m842061c2ad" y="158.4"/>
      </g>
     </g>
     <g id="text_15">
      <!-- 40 -->
      <g transform="translate(38.33 161.71125)scale(0.12 -0.12)">
       <use xlink:href="#BitstreamVeraSans-Roman-34"/>
       <use x="63.623046875" xlink:href="#BitstreamVeraSans-Roman-30"/>
      </g>
     </g>
    </g>
    <g id="ytick_6">
     <g id="line2d_83">
      <g>
       <use style="stroke:#000000;stroke-width:0.5;" x="57.6" xlink:href="#m6773a0a4c9" y="100.8"/>
      </g>
     </g>
     <g id="line2d_84">
      <g>
       <use style="stroke:#000000;stroke-width:0.5;" x="518.4" xlink:href="#m842061c2ad" y="100.8"/>
      </g>
     </g>
     <g id="text_16">
      <!-- 50 -->
      <g transform="translate(38.33 104.11125)scale(0.12 -0.12)">
       <use xlink:href="#BitstreamVeraSans-Roman-35"/>
       <use x="63.623046875" xlink:href="#BitstreamVeraSans-Roman-30"/>
      </g>
     </g>
    </g>
    <g id="ytick_7">
     <g id="line2d_85">
      <g>
       <use style="stroke:#000000;stroke-width:0.5;" x="57.6" xlink:href="#m6773a0a4c9" y="43.2"/>
      </g>
     </g>
     <g id="line2d_86">
      <g>
       <use style="stroke:#000000;stroke-width:0.5;" x="518.4" xlink:href="#m842061c2ad" y="43.2"/>
      </g>
     </g>
     <g id="text_17">
      <!-- 60 -->
      <defs>
       <path d="M 33.015625 40.375 
Q 26.375 40.375 22.484375 35.828125 
Q 18.609375 31.296875 18.609375 23.390625 
Q 18.609375 15.53125 22.484375 10.953125 
Q 26.375 6.390625 33.015625 6.390625 
Q 39.65625 6.390625 43.53125 10.953125 
Q 47.40625 15.53125 47.40625 23.390625 
Q 47.40625 31.296875 43.53125 35.828125 
Q 39.65625 40.375 33.015625 40.375 
M 52.59375 71.296875 
L 52.59375 62.3125 
Q 48.875 64.0625 45.09375 64.984375 
Q 41.3125 65.921875 37.59375 65.921875 
Q 27.828125 65.921875 22.671875 59.328125 
Q 17.53125 52.734375 16.796875 39.40625 
Q 19.671875 43.65625 24.015625 45.921875 
Q 28.375 48.1875 33.59375 48.1875 
Q 44.578125 48.1875 50.953125 41.515625 
Q 57.328125 34.859375 57.328125 23.390625 
Q 57.328125 12.15625 50.6875 5.359375 
Q 44.046875 -1.421875 33.015625 -1.421875 
Q 20.359375 -1.421875 13.671875 8.265625 
Q 6.984375 17.96875 6.984375 36.375 
Q 6.984375 53.65625 15.1875 63.9375 
Q 23.390625 74.21875 37.203125 74.21875 
Q 40.921875 74.21875 44.703125 73.484375 
Q 48.484375 72.75 52.59375 71.296875 
" id="BitstreamVeraSans-Roman-36"/>
      </defs>
      <g transform="translate(38.33 46.51125)scale(0.12 -0.12)">
       <use xlink:href="#BitstreamVeraSans-Roman-36"/>
       <use x="63.623046875" xlink:href="#BitstreamVeraSans-Roman-30"/>
      </g>
     </g>
    </g>
   </g>
  </g>
 </g>
 <defs>
  <clipPath id="p148fde2026">
   <rect height="345.6" width="460.8" x="57.6" y="43.2"/>
  </clipPath>
 </defs>
</svg>
